<svg xmlns="http://www.w3.org/2000/svg" xmlns:svg="http://www.w3.org/2000/svg" xmlns:xlink="http://www.w3.org/1999/xlink" id="svg8" width="32" height="32" version="1.1" viewBox="0 0 8.467 8.467"><defs id="defs2"><linearGradient id="linearGradient3267"><stop id="stop3259" offset="0" stop-color="#fff" stop-opacity="1"/><stop id="stop3261" offset=".309" stop-color="#fff" stop-opacity=".235"/><stop id="stop3263" offset=".821" stop-color="#fff" stop-opacity=".157"/><stop id="stop3265" offset="1" stop-color="#fff" stop-opacity=".392"/></linearGradient><linearGradient id="linearGradient4806"><stop id="stop3244" offset="0" stop-color="#fff" stop-opacity="1"/><stop id="stop3246" offset=".424" stop-color="#fff" stop-opacity=".235"/><stop id="stop3248" offset=".821" stop-color="#fff" stop-opacity=".157"/><stop id="stop3250" offset="1" stop-color="#fff" stop-opacity=".392"/></linearGradient><linearGradient id="linearGradient1384"><stop id="stop1376" offset="0" stop-color="#fff" stop-opacity="1"/><stop id="stop1378" offset=".563" stop-color="#fff" stop-opacity=".235"/><stop id="stop1380" offset=".821" stop-color="#fff" stop-opacity=".157"/><stop id="stop1382" offset="1" stop-color="#fff" stop-opacity=".392"/></linearGradient><linearGradient id="linearGradient1578"><stop id="stop1570" offset="0" stop-color="#fff" stop-opacity="1"/><stop id="stop1572" offset=".381" stop-color="#fff" stop-opacity=".235"/><stop id="stop1574" offset=".804" stop-color="#fff" stop-opacity=".157"/><stop id="stop1576" offset="1" stop-color="#fff" stop-opacity=".392"/></linearGradient><linearGradient id="linearGradient4632-0-6-4-4"><stop id="stop4936" offset="0" stop-color="#e9e9e9" stop-opacity="1"/><stop id="stop4938" offset="1" stop-color="#8cd5ff" stop-opacity="1"/></linearGradient><linearGradient id="linearGradient2954"><stop id="stop2946" offset="0" stop-color="#fff" stop-opacity="1"/><stop id="stop2948" offset=".424" stop-color="#fff" stop-opacity=".235"/><stop id="stop2950" offset=".821" stop-color="#fff" stop-opacity=".157"/><stop id="stop2952" offset="1" stop-color="#fff" stop-opacity=".928"/></linearGradient><linearGradient id="linearGradient1492"><stop id="stop1484" offset="0" stop-color="#fff" stop-opacity="1"/><stop id="stop1486" offset=".424" stop-color="#fff" stop-opacity=".235"/><stop id="stop1488" offset=".821" stop-color="#fff" stop-opacity=".437"/><stop id="stop1490" offset="1" stop-color="#fff" stop-opacity="1"/></linearGradient><linearGradient id="linearGradient1464"><stop id="stop1456" offset="0" stop-color="#fff" stop-opacity="1"/><stop id="stop1458" offset=".302" stop-color="#fff" stop-opacity=".235"/><stop id="stop1460" offset=".804" stop-color="#fff" stop-opacity=".157"/><stop id="stop1462" offset="1" stop-color="#fff" stop-opacity=".392"/></linearGradient><linearGradient id="linearGradient1423-7"><stop id="stop1419" offset="0" stop-color="#3689e6" stop-opacity="1"/><stop id="stop1421" offset="1" stop-color="#64baff" stop-opacity="1"/></linearGradient><linearGradient id="linearGradient1413-6"><stop id="stop1434" offset="0" stop-color="#e4a628" stop-opacity="1"/><stop id="stop1417" offset="1" stop-color="#f9c440" stop-opacity="1"/></linearGradient><linearGradient id="linearGradient1403-3"><stop id="stop1399" offset="0" stop-color="#3a9104" stop-opacity="1"/><stop id="stop1407" offset="1" stop-color="#57a918" stop-opacity="1"/></linearGradient><linearGradient id="linearGradient3820-7-2-8-6"><stop id="stop3822-2-6-5-0" offset="0" stop-color="#3d3d3d" stop-opacity="1"/><stop id="stop3864-8-7-4-1" offset=".5" stop-color="#686868" stop-opacity=".498"/><stop id="stop3824-1-2-6-7" offset="1" stop-color="#686868" stop-opacity="0"/></linearGradient><linearGradient id="linearGradient4806-6"><stop id="stop4808" offset="0" stop-color="#fff" stop-opacity="1"/><stop id="stop4810" offset=".424" stop-color="#fff" stop-opacity=".235"/><stop id="stop4812" offset=".821" stop-color="#fff" stop-opacity=".157"/><stop id="stop4814" offset="1" stop-color="#fff" stop-opacity=".392"/></linearGradient><linearGradient id="linearGradient3118" x1="71.204" x2="71.204" y1="15.369" y2="40.496" gradientTransform="matrix(1.1016932,0,0,1.1016932,-93.274263,202.61904)" gradientUnits="userSpaceOnUse" xlink:href="#linearGradient4806-6"/><radialGradient id="radialGradient3163" cx="99.157" cy="186.171" r="62.769" fx="99.157" fy="186.171" gradientTransform="matrix(0.18175298,0,0,0.05678406,-31.888043,234.00116)" gradientUnits="userSpaceOnUse" xlink:href="#linearGradient3820-7-2-8-6"/><radialGradient id="radialGradient5521-1" cx="7.461" cy="9.957" r="12.672" fx="6.93" fy="9.957" gradientTransform="matrix(0,12.398866,-24.426353,0,230.01527,115.18225)" gradientUnits="userSpaceOnUse" xlink:href="#linearGradient2867-449-88-871-390-598-476-591-434-148-57-177-3-8-8-9"/><linearGradient id="linearGradient2867-449-88-871-390-598-476-591-434-148-57-177-3-8-8-9"><stop id="stop3750-8-9-0" offset="0" stop-color="#90dbec" stop-opacity="1"/><stop id="stop3752-3-2-2" offset=".262" stop-color="#42baea" stop-opacity="1"/><stop id="stop3754-7-2-2" offset=".705" stop-color="#3689e6" stop-opacity="1"/><stop id="stop3756-9-3-05" offset="1" stop-color="#2b63a0" stop-opacity="1"/></linearGradient><linearGradient id="linearGradient3878"><stop id="stop3868" offset="0" stop-color="#ececec" stop-opacity="1"/><stop id="stop3872" offset=".55" stop-color="#cdcdcd" stop-opacity=".237"/><stop id="stop3876" offset="1" stop-color="#afafaf" stop-opacity=".728"/></linearGradient><linearGradient id="linearGradient4952"><stop id="stop3857" offset="0" stop-color="#fff" stop-opacity="0"/><stop id="stop3859" offset=".448" stop-color="#fff" stop-opacity=".273"/><stop id="stop3861" offset=".55" stop-color="#fff" stop-opacity="1"/><stop id="stop3863" offset=".721" stop-color="#fff" stop-opacity=".229"/><stop id="stop3865" offset="1" stop-color="#fff" stop-opacity="0"/></linearGradient><linearGradient id="linearGradient986"><stop id="stop982" offset="0" stop-color="#41277b" stop-opacity="1"/><stop id="stop984" offset="1" stop-color="#6c36aa" stop-opacity="1"/></linearGradient><linearGradient id="linearGradient971"><stop id="stop977" offset="0" stop-color="#d9bced" stop-opacity="1"/><stop id="stop979" offset="1" stop-color="#c396eb" stop-opacity="1"/></linearGradient><linearGradient id="linearGradient7810"><stop id="stop7884" offset="0" stop-color="#f2857b" stop-opacity="1"/><stop id="stop7886" offset=".524" stop-color="#e14f4f" stop-opacity="1"/><stop id="stop7888" offset="1" stop-color="#bc242c" stop-opacity="1"/></linearGradient><linearGradient id="linearGradient7810-6"><stop id="stop7804" offset="0" stop-color="#a2e34f" stop-opacity="1"/><stop id="stop7806" offset=".524" stop-color="#68b723" stop-opacity="1"/><stop id="stop7808" offset="1" stop-color="#1d7e0d" stop-opacity="1"/></linearGradient><linearGradient id="linearGradient3179" x1="8.264" x2="41.297" y1="25.411" y2="25.411" gradientTransform="matrix(0,0.64476978,-0.60930123,0,29.714682,1.4553978)" gradientUnits="userSpaceOnUse" xlink:href="#linearGradient3264"/><linearGradient id="linearGradient3264"><stop id="stop3266" offset="0" stop-color="#fff" stop-opacity="1"/><stop id="stop3268" offset=".009" stop-color="#fff" stop-opacity=".235"/><stop id="stop3270" offset=".485" stop-color="#fff" stop-opacity=".235"/><stop id="stop3272" offset=".487" stop-color="#fff" stop-opacity="1"/><stop id="stop3274" offset="1" stop-color="#fff" stop-opacity="0"/></linearGradient><radialGradient id="radialGradient3087-5" cx="66.365" cy="48.605" r="31" fx="66.365" fy="48.605" gradientTransform="matrix(0,1.1651277,-1.0082825,0,62.708345,-71.162729)" gradientUnits="userSpaceOnUse" xlink:href="#linearGradient3242-7-3-8-0-4-58-06"/><linearGradient id="linearGradient5105-262-943-861"><stop id="stop2487" offset="0" stop-color="#0d0d0d" stop-opacity="1"/><stop id="stop2489" offset="1" stop-color="#0d0d0d" stop-opacity="0"/></linearGradient><radialGradient id="radialGradient4025" cx="11.25" cy="19.031" r="8.063" fx="11.25" fy="19.031" gradientTransform="matrix(1.7006877,0,0,0.46769001,-5.4209399,18.181008)" gradientUnits="userSpaceOnUse" xlink:href="#linearGradient5105-262-943-861"/><linearGradient id="linearGradient3242-7-3-8-0-4-58-06"><stop id="stop3244-5-8-5-6-4-3-8" offset="0" stop-color="#cdf87e" stop-opacity="1"/><stop id="stop3246-9-5-1-5-3-0-7" offset=".262" stop-color="#a2e34f" stop-opacity="1"/><stop id="stop3248-7-2-0-7-5-35-9" offset=".661" stop-color="#68b723" stop-opacity="1"/><stop id="stop3250-8-2-8-5-6-40-4" offset="1" stop-color="#1d7e0d" stop-opacity="1"/></linearGradient><radialGradient id="radialGradient4025-3" cx="11.25" cy="19.031" r="8.063" fx="11.25" fy="19.031" gradientTransform="matrix(8.8933621,0,0,-3.4455113,84.522556,124.36388)" gradientUnits="userSpaceOnUse" xlink:href="#linearGradient5105-262-943-861"/><radialGradient id="radialGradient3087-5-5" cx="68.722" cy="63.116" r="31" fx="68.722" fy="63.116" gradientTransform="matrix(2.6743827,-1.3073728,-1.5658862,-3.2032018,62.723994,423.30663)" gradientUnits="userSpaceOnUse" xlink:href="#linearGradient3242-7-3-8-0-4-58-06"/><linearGradient id="linearGradient3179-9" x1="8.264" x2="41.297" y1="25.411" y2="25.411" gradientTransform="matrix(0,-3.2017904,-2.1545936,0,220.72713,204.21501)" gradientUnits="userSpaceOnUse" xlink:href="#linearGradient3264"/><radialGradient id="radialGradient4025-3-2" cx="11.25" cy="19.031" r="8.063" fx="11.25" fy="19.031" gradientTransform="matrix(1.0837239,0,0,-0.39742737,-11.324685,16.697552)" gradientUnits="userSpaceOnUse" xlink:href="#linearGradient5105-262-943-861"/><radialGradient id="radialGradient3087-5-5-8" cx="66.365" cy="48.605" r="31" fx="66.365" fy="48.605" gradientTransform="matrix(0,-0.99008666,-0.6425047,0,32.089126,92.618877)" gradientUnits="userSpaceOnUse" xlink:href="#linearGradient3242-7-3-8-0-4-58-06"/><linearGradient id="linearGradient3179-9-2" x1="8.264" x2="41.297" y1="25.411" y2="25.411" gradientTransform="matrix(0,-0.54790385,-0.38826312,0,11.064677,30.910417)" gradientUnits="userSpaceOnUse" xlink:href="#linearGradient3264"/><radialGradient id="radialGradient4025-3-3" cx="11.25" cy="19.031" r="8.063" fx="11.25" fy="19.031" gradientTransform="matrix(8.8933621,0,0,3.4455113,-28.814797,132.96807)" gradientUnits="userSpaceOnUse" xlink:href="#linearGradient5105-262-943-861"/><radialGradient id="radialGradient3087-5-5-2" cx="66.365" cy="48.605" r="31" fx="66.365" fy="48.605" gradientTransform="matrix(-0.99008666,0,0,-0.60817383,82.167029,58.297492)" gradientUnits="userSpaceOnUse" xlink:href="#linearGradient3242-7-3-8-0-4-58-06"/><linearGradient id="linearGradient3179-9-4" x1="8.264" x2="41.297" y1="25.411" y2="25.411" gradientTransform="matrix(0,3.2017906,-2.1545937,0,156.23703,61.082777)" gradientUnits="userSpaceOnUse" xlink:href="#linearGradient3264"/><radialGradient id="radialGradient3300-8" cx="99.189" cy="185.297" r="62.769" fx="99.189" fy="185.297" gradientTransform="matrix(0.3823536,7.5555777e-8,-1.8372241e-8,0.1115198,-5.9254271,36.335849)" gradientUnits="userSpaceOnUse" xlink:href="#linearGradient3820-7-2"/><linearGradient id="linearGradient3820-7-2"><stop id="stop3822-2-6" offset="0" stop-color="#000" stop-opacity="1"/><stop id="stop3824-1-2" offset="1" stop-color="#000" stop-opacity="0"/></linearGradient><radialGradient id="radialGradient4192-6" cx="99.189" cy="185.297" r="62.769" fx="99.189" fy="185.297" gradientTransform="matrix(0.2549024,5.3967361e-8,-1.2248161e-8,0.07965545,6.7163816,44.240666)" gradientUnits="userSpaceOnUse" xlink:href="#linearGradient3820-7-2"/><linearGradient id="linearGradient904" x1="3.5" x2="44.5" y1="24" y2="24" gradientTransform="matrix(0,1.4913314,-1.4913314,0,253.65895,140.72127)" gradientUnits="userSpaceOnUse" xlink:href="#linearGradient902"/><linearGradient id="linearGradient902"><stop id="stop898" offset="0" stop-color="#cd9ef7" stop-opacity="1"/><stop id="stop900" offset="1" stop-color="#a56de2" stop-opacity="1"/></linearGradient><linearGradient id="linearGradient4338-5-6" x1="71.204" x2="71.204" y1="15.369" y2="40.496" gradientTransform="matrix(2.4114539,0,0,2.4114539,43.817646,109.31347)" gradientUnits="userSpaceOnUse" xlink:href="#linearGradient4806-6"/><linearGradient id="linearGradient4362" x1="3.5" x2="47.5" y1="23" y2="23" gradientTransform="matrix(0,1.3633987,1.3633987,0,186.53328,141.74699)" gradientUnits="userSpaceOnUse" xlink:href="#linearGradient4804"/><linearGradient id="linearGradient4804"><stop id="stop4806" offset="0" stop-color="#fff" stop-opacity="0"/><stop id="stop4808-3" offset=".292" stop-color="#fff" stop-opacity=".851"/><stop id="stop4812-6" offset=".457" stop-color="#fff" stop-opacity=".127"/><stop id="stop4818" offset=".725" stop-color="#fff" stop-opacity=".273"/><stop id="stop4816" offset=".84" stop-color="#fff" stop-opacity="1"/><stop id="stop4810-7" offset="1" stop-color="#fff" stop-opacity="0"/></linearGradient><linearGradient id="linearGradient4355" x1="47.1" x2="4.287" y1="27.262" y2="27.243" gradientTransform="matrix(0.96406848,0.96406848,-0.96406848,0.96406848,215.48129,129.75633)" gradientUnits="userSpaceOnUse" xlink:href="#linearGradient4820"/><linearGradient id="linearGradient4820"><stop id="stop4822" offset="0" stop-color="#fff" stop-opacity="0"/><stop id="stop4824" offset=".143" stop-color="#fff" stop-opacity=".851"/><stop id="stop4826" offset=".346" stop-color="#fff" stop-opacity=".127"/><stop id="stop4928" offset=".436" stop-color="#fff" stop-opacity="1"/><stop id="stop4930" offset=".581" stop-color="#fff" stop-opacity=".205"/><stop id="stop4828" offset=".725" stop-color="#fff" stop-opacity=".273"/><stop id="stop4830" offset=".84" stop-color="#fff" stop-opacity="1"/><stop id="stop4832" offset="1" stop-color="#fff" stop-opacity="0"/></linearGradient><linearGradient id="linearGradient4344" x1="4.49" x2="47.5" y1="23" y2="23" gradientTransform="matrix(1.3633987,0,0,-1.3633987,183.12479,207.87182)" gradientUnits="userSpaceOnUse" xlink:href="#linearGradient4834"/><linearGradient id="linearGradient4834"><stop id="stop4836" offset="0" stop-color="#fff" stop-opacity="0"/><stop id="stop4838" offset=".168" stop-color="#fff" stop-opacity=".851"/><stop id="stop4840" offset=".457" stop-color="#fff" stop-opacity=".127"/><stop id="stop4842" offset=".608" stop-color="#fff" stop-opacity=".273"/><stop id="stop4844" offset=".693" stop-color="#fff" stop-opacity="1"/><stop id="stop4846" offset="1" stop-color="#fff" stop-opacity="0"/></linearGradient><radialGradient id="radialGradient4884" cx="32.704" cy="20.069" r="2.5" fx="32.704" fy="20.069" gradientTransform="matrix(1.4913314,0,0,1.4913314,183.6596,136.06086)" gradientUnits="userSpaceOnUse" xlink:href="#linearGradient4878"/><linearGradient id="linearGradient4878"><stop id="stop4880" offset="0" stop-color="#fff" stop-opacity="1"/><stop id="stop4882" offset="1" stop-color="#fff" stop-opacity="0"/></linearGradient><radialGradient id="radialGradient4888" cx="32.704" cy="20.069" r="2.5" fx="32.704" fy="20.069" gradientTransform="matrix(1.4913314,0,0,1.4913314,178.4158,167.36871)" gradientUnits="userSpaceOnUse" xlink:href="#linearGradient4878"/><radialGradient id="radialGradient4894" cx="32.704" cy="20.069" r="2.5" fx="32.704" fy="20.069" gradientTransform="matrix(1.4913314,0,0,1.4913314,150.54654,137.44887)" gradientUnits="userSpaceOnUse" xlink:href="#linearGradient4878"/><linearGradient id="linearGradient4898" x1="5.551" x2="44.629" y1="58.276" y2="22.18" gradientTransform="matrix(0,1.3633987,1.3633987,0,168.75032,141.74699)" gradientUnits="userSpaceOnUse" xlink:href="#linearGradient4914"/><linearGradient id="linearGradient4914"><stop id="stop4916" offset="0" stop-color="#fff" stop-opacity="0"/><stop id="stop4918" offset=".143" stop-color="#fff" stop-opacity=".851"/><stop id="stop4920" offset=".346" stop-color="#fff" stop-opacity=".127"/><stop id="stop4922" offset=".645" stop-color="#fff" stop-opacity=".273"/><stop id="stop4924" offset=".728" stop-color="#fff" stop-opacity="1"/><stop id="stop4932" offset=".809" stop-color="#fff" stop-opacity=".229"/><stop id="stop4926" offset="1" stop-color="#fff" stop-opacity="0"/></linearGradient><radialGradient id="radialGradient4938" cx="32.704" cy="20.069" r="2.5" fx="32.704" fy="20.069" gradientTransform="matrix(1.4913314,0,0,1.4913314,162.0353,158.61725)" gradientUnits="userSpaceOnUse" xlink:href="#linearGradient4878"/><linearGradient id="linearGradient4946" x1="5.551" x2="44.629" y1="58.276" y2="22.18" gradientTransform="matrix(0,-1.3633987,-1.3633987,0,242.03427,212.97286)" gradientUnits="userSpaceOnUse" xlink:href="#linearGradient4914"/><linearGradient id="linearGradient4950" x1="25.177" x2="40.761" y1="48.221" y2="17.055" gradientTransform="matrix(0,1.3633987,1.3633987,0,183.80775,149.0909)" gradientUnits="userSpaceOnUse" xlink:href="#linearGradient4952"/><radialGradient id="radialGradient3300-8-5" cx="99.189" cy="185.297" r="62.769" fx="99.189" fy="185.297" gradientTransform="matrix(0.3823536,7.5555777e-8,-1.8372241e-8,0.1115198,-5.9254271,36.335849)" gradientUnits="userSpaceOnUse" xlink:href="#linearGradient3820-7-2"/><radialGradient id="radialGradient4192-6-6" cx="99.189" cy="185.297" r="62.769" fx="99.189" fy="185.297" gradientTransform="matrix(0.2549024,5.3967361e-8,-1.2248161e-8,0.07965545,6.7163816,44.240666)" gradientUnits="userSpaceOnUse" xlink:href="#linearGradient3820-7-2"/><linearGradient id="linearGradient904-5" x1="3.5" x2="44.5" y1="24" y2="24" gradientTransform="matrix(0,6.1888534,-6.1888534,0,276.53244,-20.567236)" gradientUnits="userSpaceOnUse" xlink:href="#linearGradient902"/><linearGradient id="linearGradient4338-5-6-3" x1="71.204" x2="71.204" y1="15.369" y2="40.496" gradientTransform="matrix(9.1520045,0,0,9.1520045,-532.5561,-125.00937)" gradientUnits="userSpaceOnUse" xlink:href="#linearGradient4806-6"/><linearGradient id="linearGradient4362-5" x1="3.5" x2="47.5" y1="23" y2="23" gradientTransform="matrix(0,5.6579474,5.6579474,0,-2.0313532,-16.310615)" gradientUnits="userSpaceOnUse" xlink:href="#linearGradient4804"/><linearGradient id="linearGradient4355-8" x1="47.1" x2="4.287" y1="27.262" y2="27.243" gradientTransform="matrix(4.0007732,4.0007732,-4.0007732,4.0007732,118.09952,-66.07043)" gradientUnits="userSpaceOnUse" xlink:href="#linearGradient4820"/><linearGradient id="linearGradient4344-2" x1="4.49" x2="47.5" y1="23" y2="23" gradientTransform="matrix(5.6579474,0,0,-5.6579474,-16.176197,258.09988)" gradientUnits="userSpaceOnUse" xlink:href="#linearGradient4834"/><radialGradient id="radialGradient4884-6" cx="32.704" cy="20.069" r="2.5" fx="32.704" fy="20.069" gradientTransform="matrix(6.1888534,0,0,6.1888534,8.6027856,-36.586896)" gradientUnits="userSpaceOnUse" xlink:href="#linearGradient4878"/><radialGradient id="radialGradient4888-5" cx="32.704" cy="20.069" r="2.5" fx="32.704" fy="20.069" gradientTransform="matrix(6.1888534,0,0,6.1888534,-36.108622,93.825381)" gradientUnits="userSpaceOnUse" xlink:href="#linearGradient4878"/><radialGradient id="radialGradient4894-0" cx="32.704" cy="20.069" r="2.5" fx="32.704" fy="20.069" gradientTransform="matrix(6.1888534,0,0,6.1888534,-151.37219,-34.147276)" gradientUnits="userSpaceOnUse" xlink:href="#linearGradient4878"/><linearGradient id="linearGradient4898-4" x1="5.551" x2="44.629" y1="58.276" y2="22.18" gradientTransform="matrix(0,5.6579474,5.6579474,0,-75.828591,-16.310615)" gradientUnits="userSpaceOnUse" xlink:href="#linearGradient4914"/><radialGradient id="radialGradient4938-2" cx="32.704" cy="20.069" r="2.5" fx="32.704" fy="20.069" gradientTransform="matrix(6.1888534,0,0,6.1888534,-103.69517,53.699059)" gradientUnits="userSpaceOnUse" xlink:href="#linearGradient4878"/><linearGradient id="linearGradient4946-6" x1="5.551" x2="44.629" y1="58.276" y2="22.18" gradientTransform="matrix(0,-5.6579474,-5.6579474,0,228.29135,279.2686)" gradientUnits="userSpaceOnUse" xlink:href="#linearGradient4914"/><linearGradient id="linearGradient4950-1" x1="25.177" x2="40.761" y1="48.221" y2="17.055" gradientTransform="matrix(0,5.6579474,5.6579474,0,-13.342019,14.165764)" gradientUnits="userSpaceOnUse" xlink:href="#linearGradient4952"/><linearGradient id="linearGradient3888" x1="3.5" x2="44.5" y1="24" y2="24" gradientTransform="matrix(0,5.6599347,-5.6599347,0,263.83839,-5.8098105)" gradientUnits="userSpaceOnUse" xlink:href="#linearGradient902"/><mask id="mask3884" maskUnits="userSpaceOnUse"><path id="path3886" fill="url(#linearGradient3888)" fill-opacity="1" fill-rule="nonzero" stroke="none" stroke-width="1.536" d="M 244.02868,130.02868 C 244.02868,66.008058 192.02066,13.999999 128,13.999999 c -64.020621,0 -116.028691,52.008059 -116.028676,116.028681 0,64.02058 52.008055,116.02868 116.028676,116.0286 64.02066,0 116.02868,-52.00802 116.02868,-116.0286 z" color="#000" display="inline" enable-background="accumulate" overflow="visible" visibility="visible" style="marker:none"/></mask><clipPath id="clipPath1450" clipPathUnits="userSpaceOnUse"><path id="path1452" fill="url(#linearGradient1454)" fill-opacity="1" stroke="none" stroke-dasharray="none" stroke-linecap="round" stroke-miterlimit="4" stroke-opacity="1" stroke-width="2.714" d="m 133.83607,-244.81346 a 31.598806,31.598806 0 0 1 -15.79941,27.36537 31.598806,31.598806 0 0 1 -31.598804,0 l 15.799404,-27.36537 z"/></clipPath><linearGradient id="linearGradient1454" x1="117.938" x2="93.729" y1="-213.735" y2="-259.55" gradientTransform="translate(2.7083334e-7,1.1719444e-6)" gradientUnits="userSpaceOnUse" xlink:href="#linearGradient1403-3"/><linearGradient id="linearGradient1604" x1="-309.655" x2="-359.71" y1="543.65" y2="172.702" gradientTransform="matrix(0.24287425,0,0,0.23438868,147.36438,-127.47933)" gradientUnits="userSpaceOnUse" spreadMethod="pad"><stop id="stop1600" offset="0" stop-color="#3689e6" stop-opacity="1"/><stop id="stop1602" offset="1" stop-color="#64baff" stop-opacity="1"/></linearGradient><linearGradient id="linearGradient1596" x1="-309.655" x2="-359.71" y1="543.65" y2="172.702" gradientTransform="matrix(0.24287425,0,0,0.23438868,147.36438,-127.47933)" gradientUnits="userSpaceOnUse" spreadMethod="pad"><stop id="stop1592" offset="0" stop-color="#3689e6" stop-opacity="1"/><stop id="stop1594" offset="1" stop-color="#85caf2" stop-opacity="1"/></linearGradient><linearGradient id="linearGradient1559" x1="-309.655" x2="-359.71" y1="543.65" y2="172.702" gradientTransform="matrix(0.24287425,0,0,0.23438868,147.36438,-127.47933)" gradientUnits="userSpaceOnUse" spreadMethod="pad"><stop id="stop1555" offset="0" stop-color="#5fb1f2" stop-opacity="1"/><stop id="stop1557" offset="1" stop-color="#8cd5ff" stop-opacity="1"/></linearGradient><linearGradient id="linearGradient1539" x1="268.794" x2="268.794" y1="549.49" y2="-34.628" gradientTransform="matrix(0.22208157,0,0,0.21399793,5.3058525,-69.589766)" gradientUnits="userSpaceOnUse"><stop id="stop1535" offset="0" stop-color="#f37329" stop-opacity="1"/><stop id="stop1537" offset="1" stop-color="#ffa154" stop-opacity="1"/></linearGradient><linearGradient id="a" x1="41.749" x2="41.357" y1="226.204" y2="102.257" gradientTransform="matrix(0.93656781,0,0,0.94442665,143.00429,52.34307)" gradientUnits="userSpaceOnUse"><stop id="stop829" offset="0" stop-color="#ff5335"/><stop id="stop831" offset="1" stop-color="#ff8f36"/></linearGradient><linearGradient id="b-1" x1="-488.268" x2="-488.268" y1="685.242" y2="219.421" gradientTransform="matrix(0.2261032,0,0,0.21820358,141.65758,-116.03208)" gradientUnits="userSpaceOnUse" xlink:href="#a-0"/><linearGradient id="a-0"><stop id="stop2-5" offset="0" stop-color="#3889e9"/><stop id="stop4-1" offset="1" stop-color="#5ea5fb"/></linearGradient><linearGradient id="g" x1="-1483.13" x2="-1483.13" y1="683.663" y2="138.004" gradientTransform="matrix(0.2261032,0,0,0.21820358,141.65758,-116.03208)" gradientUnits="userSpaceOnUse" xlink:href="#a-0"/><linearGradient id="i" x1="-.519" x2="-.519" y1="715.891" y2="233.701" gradientTransform="matrix(0.2261032,0,0,0.21820358,141.65758,-116.03208)" gradientUnits="userSpaceOnUse" xlink:href="#a-0"/><linearGradient id="h" x1="623.442" x2="623.442" y1="675.566" y2="193.376" gradientTransform="matrix(0.2261032,0,0,0.21820358,141.65758,-116.03208)" gradientUnits="userSpaceOnUse" xlink:href="#a-0"/><linearGradient id="c" x1="129.607" x2="129.607" y1="647.8" y2="165.61" gradientTransform="matrix(0.2261032,0,0,0.21820358,141.65758,-116.03208)" gradientUnits="userSpaceOnUse" xlink:href="#a-0"/><linearGradient id="j" x1="-309.655" x2="-359.71" y1="543.65" y2="172.702" gradientTransform="matrix(0.24287425,0,0,0.23438868,147.36438,-127.47933)" gradientUnits="userSpaceOnUse" xlink:href="#linearGradient1596"><stop id="stop27" offset="0" stop-color="#5fb1f2" stop-opacity="1"/><stop id="stop29" offset="1" stop-color="#85caf2" stop-opacity="1"/></linearGradient><linearGradient id="d" x1="-563.076" x2="-475.295" y1="349.623" y2="299.772" gradientTransform="matrix(0.2261032,0,0,0.21820358,141.65758,-116.03208)" gradientUnits="userSpaceOnUse"><stop id="stop9-1" offset="0" stop-color="#ec3a00"/><stop id="stop11" offset="1" stop-color="#ffb900" stop-opacity=".016"/></linearGradient><linearGradient id="e" x1="-419.893" x2="-345.962" y1="381.178" y2="381.178" gradientTransform="matrix(0.2261032,0,0,0.21820358,141.65758,-116.03208)" gradientUnits="userSpaceOnUse"><stop id="stop14" offset="0" stop-color="#de4000"/><stop id="stop16" offset="1" stop-color="#fab600"/></linearGradient><linearGradient id="f" x1="-262.739" x2="-132.198" y1="196.198" y2="241.347" gradientTransform="matrix(0.29658101,0,0,0.28865918,114.78391,-73.894691)" gradientUnits="userSpaceOnUse"><stop id="stop19" offset="0" stop-color="#f24d00"/><stop id="stop21" offset="1" stop-color="#ffb000"/></linearGradient><linearGradient id="l" x1="516.322" x2="477.791" y1="486.263" y2="-33.617" gradientTransform="matrix(0.09006435,0.08882134,-0.09189757,0.08678608,71.589137,-55.892463)" gradientUnits="userSpaceOnUse"><stop id="stop37" offset="0" stop-color="#fc5500" stop-opacity=".04"/><stop id="stop39" offset=".457" stop-color="#fd8b00"/><stop id="stop41" offset="1" stop-color="#ffc200"/></linearGradient><mask id="mask6094" maskUnits="userSpaceOnUse"><path id="path6096" fill="#fff" fill-opacity="1" stroke="none" stroke-dasharray="none" stroke-linecap="round" stroke-linejoin="round" stroke-miterlimit="4" stroke-opacity="1" stroke-width="1" d="m 83.599609,7.703125 c -2.476762,3.510419 -4.329044,6.703216 -5.675781,9.636719 A 51.989471,50.173058 0 0 0 66.091797,15.96875 51.989471,50.173058 0 0 0 26.390625,33.751953 c -1.946011,-1.980696 -4.070824,-4.925063 -4.207031,-8.34375 0,0 -0.0092,0.0085 -0.02734,0.02148 -0.0023,-0.03964 -0.0076,-0.07755 -0.0098,-0.117188 0,0 -6.537127,4.840836 -5.558593,18.041016 -0.0023,0.21133 -0.007,0.413343 -0.01367,0.609375 -1.769336,2.312552 -2.647556,4.256427 -2.712891,4.685547 -1.567343,3.075963 -3.15849,7.705107 -4.4531249,14.732421 0,0 0.9053489,-2.766648 2.7226559,-5.90039 C 10.847547,71.316311 11.988594,80.39543 19.25,92.826172 35.983737,117.93068 62.390937,122.56859 83.976562,114.97656 105.56218,107.38453 122.32607,87.563746 119.77344,63.751953 121.06354,49.677347 105.45832,28.427531 98.955078,18.048828 c -1.641957,1.158722 -2.5625,4.007813 -2.5625,4.007813 C 86.719173,14.667194 87.664741,12.909257 83.599609,7.703125 Z"/></mask><linearGradient id="linearGradient1529" x1="268.794" x2="268.794" y1="549.49" y2="-34.628" gradientTransform="matrix(0.22208157,0,0,0.21399793,5.3058525,-69.589766)" gradientUnits="userSpaceOnUse" xlink:href="#linearGradient1539"/><mask id="mask1525" maskUnits="userSpaceOnUse"><path id="path1527" fill="url(#linearGradient1529)" stroke-width=".239" d="m 123.85775,-20.294456 c 1.38579,-15.11858 -15.37676,-37.944783 -22.36238,-49.093318 -1.763745,1.244669 -2.753425,4.306618 -2.753425,4.306618 -10.390923,-7.937554 -9.375626,-9.826671 -13.742287,-15.418964 -32.370256,45.879709 32.959942,42.15531 4.900025,79.687197 -0.460587,0.279279 -0.446471,-2.199238 -2.84203,-5.772512 C 84.012377,7.4301 64.343363,16.437992 49.158698,2.900469 53.654294,3.843356 62.189111,2.75376 65.966933,0.045516 c 0.0048,-0.0023 0.0096,-0.0069 0.01437,-0.0093 4.102504,-2.703012 6.531857,-4.676719 8.713573,-4.209777 2.183082,0.469513 3.636376,-1.641577 1.940788,-3.514487 -1.697602,-1.876542 -5.819218,-4.455638 -11.395683,-3.05032 -3.932619,0.992523 -8.806415,5.185382 -16.245258,0.939879 -5.709713,-3.260037 -6.247391,-5.96819 -6.298008,-7.843875 0.14075,-0.664881 0.318449,-1.285704 0.529215,-1.853007 0.657136,-1.768688 2.650096,-2.302412 3.758518,-2.723769 1.880362,0.311164 3.500204,0.876315 5.201356,1.717128 0.02161,-0.545478 0.02901,-1.269646 -0.0021,-2.090979 0.163049,-0.312229 0.06211,-1.254028 -0.199256,-2.405336 -0.150582,-1.148952 -0.395534,-2.337726 -0.781076,-3.420749 0.0015,-2.14e-4 0.0025,-0.0012 0.0025,-0.0016 0.0072,-0.0024 0.012,-0.0046 0.01918,-0.007 0.0096,-0.0046 0.01678,-0.01158 0.02398,-0.02082 0.0015,-0.0024 0.0025,-0.0046 0.0048,-0.0046 0.0096,-0.01388 0.01678,-0.03031 0.02398,-0.05207 0.117972,-0.514655 1.390689,-1.507386 2.974805,-2.574605 1.419532,-0.956355 3.088483,-1.972411 4.40321,-2.758848 1.163688,-0.696355 2.049571,-1.212957 2.237916,-1.34842 0.07122,-0.05206 0.157054,-0.112689 0.250279,-0.18234 0.01678,-0.01388 0.03477,-0.02592 0.05252,-0.03957 0.012,-0.0092 0.02157,-0.0162 0.03308,-0.02499 0.625606,-0.480205 1.559685,-1.387341 1.755559,-3.296647 4.85e-4,-0.0046 0.0012,-0.0092 0.0015,-0.01388 0.0048,-0.056 0.0096,-0.112924 0.01438,-0.171005 0.0025,-0.04026 0.0048,-0.08099 0.0096,-0.12218 0.0017,-0.0317 0.0048,-0.06317 0.0048,-0.09533 0.0025,-0.07544 0.0048,-0.152261 0.0072,-0.230013 0,-0.0046 2.16e-4,-0.0092 4.85e-4,-0.01388 0.0025,-0.184889 -7.28e-4,-0.377481 -0.012,-0.579728 -0.0072,-0.112925 -0.01437,-0.214972 -0.03429,-0.307718 -9.71e-4,-0.0046 -0.0025,-0.0092 -0.0025,-0.0162 -0.0021,-0.0092 -0.0048,-0.01852 -0.0072,-0.02707 -0.0048,-0.0162 -0.0096,-0.03262 -0.01438,-0.0479 -7.28e-4,-0.0021 -0.0015,-0.0046 -0.0021,-0.0046 -0.0048,-0.01852 -0.012,-0.03517 -0.01919,-0.05183 -4.85e-4,-7.02e-4 -4.85e-4,-0.0012 -7.28e-4,-0.0018 -0.202851,-0.457733 -0.962302,-0.630658 -4.099411,-0.682006 -0.0025,-2.08e-4 -0.0048,-2.08e-4 -0.0096,-2.08e-4 -1.280079,-0.02084 -2.953921,-0.02084 -5.147649,-0.01388 -3.845771,0.01388 -5.971547,-3.62276 -6.65,-5.030229 0.930075,-4.955324 3.617698,-8.486517 8.03292,-10.881142 0.08344,-0.04535 0.06714,-0.08284 -0.03166,-0.10899 0.863248,-0.503317 -10.43849,-0.01388 -15.636751,6.357241 -4.613734,-1.105077 -8.634976,-1.030609 -12.100558,-0.246951 -0.665575,-0.01852 -1.494823,-0.09788 -2.479326,-0.29552 -2.304986,-2.012445 -5.60445,-5.729153 -5.781214,-10.16577 0,0 -0.0096,0.0092 -0.02901,0.02314 -0.0025,-0.04258 -0.0072,-0.0847 -0.0096,-0.127273 0,0 -7.022878,5.201005 -5.971762,19.380299 -0.0025,0.227005 -0.0072,0.444266 -0.01438,0.654839 -1.900575,2.484084 -2.843767,4.572058 -2.913949,5.033007 -1.6835991,3.30412 -3.3925201,8.276362 -4.783184,15.824922 0,0 0.97249,-2.97199 2.9245944,-6.338175 C 6.8517177,-12.16827 8.0779316,-2.415226 15.877947,10.937557 33.852897,37.90417 62.218844,42.88516 85.405567,34.73 108.59229,26.57483 126.59979,5.283511 123.85782,-20.294503 Z"/></mask><clipPath id="clipPath1517" clipPathUnits="userSpaceOnUse"><ellipse id="ellipse1519" cx="66.194" cy="62.273" fill="url(#linearGradient1521)" stroke-width=".239" rx="55.846" ry="53.895"/></clipPath><linearGradient id="linearGradient1521" x1="-309.655" x2="-359.71" y1="543.65" y2="172.702" gradientTransform="matrix(0.24287425,0,0,0.23438868,147.36438,32.52067)" gradientUnits="userSpaceOnUse" xlink:href="#j"/><clipPath id="clipPath1524" clipPathUnits="userSpaceOnUse"><path id="path1526" fill="url(#linearGradient1529)" stroke-width=".239" d="m 123.85775,-20.294456 c 1.38579,-15.11858 -15.37676,-37.944783 -22.36238,-49.093318 -1.763745,1.244669 -2.753425,4.306618 -2.753425,4.306618 -10.390923,-7.937554 -9.375626,-9.826671 -13.742287,-15.418964 -32.370256,45.879709 32.959942,42.15531 4.900025,79.687197 -0.460587,0.279279 -0.446471,-2.199238 -2.84203,-5.772512 C 84.012377,7.4301 64.343363,16.437992 49.158698,2.900469 53.654294,3.843356 62.189111,2.75376 65.966933,0.045516 c 0.0048,-0.0023 0.0096,-0.0069 0.01437,-0.0093 4.102504,-2.703012 6.531857,-4.676719 8.713573,-4.209777 2.183082,0.469513 3.636376,-1.641577 1.940788,-3.514487 -1.697602,-1.876542 -5.819218,-4.455638 -11.395683,-3.05032 -3.932619,0.992523 -8.806415,5.185382 -16.245258,0.939879 -5.709713,-3.260037 -6.247391,-5.96819 -6.298008,-7.843875 0.14075,-0.664881 0.318449,-1.285704 0.529215,-1.853007 0.657136,-1.768688 2.650096,-2.302412 3.758518,-2.723769 1.880362,0.311164 3.500204,0.876315 5.201356,1.717128 0.02161,-0.545478 0.02901,-1.269646 -0.0021,-2.090979 0.163049,-0.312229 0.06211,-1.254028 -0.199256,-2.405336 -0.150582,-1.148952 -0.395534,-2.337726 -0.781076,-3.420749 0.0015,-2.14e-4 0.0025,-0.0012 0.0025,-0.0016 0.0072,-0.0024 0.012,-0.0046 0.01918,-0.007 0.0096,-0.0046 0.01678,-0.01158 0.02398,-0.02082 0.0015,-0.0024 0.0025,-0.0046 0.0048,-0.0046 0.0096,-0.01388 0.01678,-0.03031 0.02398,-0.05207 0.117972,-0.514655 1.390689,-1.507386 2.974805,-2.574605 1.419532,-0.956355 3.088483,-1.972411 4.40321,-2.758848 1.163688,-0.696355 2.049571,-1.212957 2.237916,-1.34842 0.07122,-0.05206 0.157054,-0.112689 0.250279,-0.18234 0.01678,-0.01388 0.03477,-0.02592 0.05252,-0.03957 0.012,-0.0092 0.02157,-0.0162 0.03308,-0.02499 0.625606,-0.480205 1.559685,-1.387341 1.755559,-3.296647 4.85e-4,-0.0046 0.0012,-0.0092 0.0015,-0.01388 0.0048,-0.056 0.0096,-0.112924 0.01438,-0.171005 0.0025,-0.04026 0.0048,-0.08099 0.0096,-0.12218 0.0017,-0.0317 0.0048,-0.06317 0.0048,-0.09533 0.0025,-0.07544 0.0048,-0.152261 0.0072,-0.230013 0,-0.0046 2.16e-4,-0.0092 4.85e-4,-0.01388 0.0025,-0.184889 -7.28e-4,-0.377481 -0.012,-0.579728 -0.0072,-0.112925 -0.01437,-0.214972 -0.03429,-0.307718 -9.71e-4,-0.0046 -0.0025,-0.0092 -0.0025,-0.0162 -0.0021,-0.0092 -0.0048,-0.01852 -0.0072,-0.02707 -0.0048,-0.0162 -0.0096,-0.03262 -0.01438,-0.0479 -7.28e-4,-0.0021 -0.0015,-0.0046 -0.0021,-0.0046 -0.0048,-0.01852 -0.012,-0.03517 -0.01919,-0.05183 -4.85e-4,-7.02e-4 -4.85e-4,-0.0012 -7.28e-4,-0.0018 -0.202851,-0.457733 -0.962302,-0.630658 -4.099411,-0.682006 -0.0025,-2.08e-4 -0.0048,-2.08e-4 -0.0096,-2.08e-4 -1.280079,-0.02084 -2.953921,-0.02084 -5.147649,-0.01388 -3.845771,0.01388 -5.971547,-3.62276 -6.65,-5.030229 0.930075,-4.955324 3.617698,-8.486517 8.03292,-10.881142 0.08344,-0.04535 0.06714,-0.08284 -0.03166,-0.10899 0.863248,-0.503317 -10.43849,-0.01388 -15.636751,6.357241 -4.613734,-1.105077 -8.634976,-1.030609 -12.100558,-0.246951 -0.665575,-0.01852 -1.494823,-0.09788 -2.479326,-0.29552 -2.304986,-2.012445 -5.60445,-5.729153 -5.781214,-10.16577 0,0 -0.0096,0.0092 -0.02901,0.02314 -0.0025,-0.04258 -0.0072,-0.0847 -0.0096,-0.127273 0,0 -7.022878,5.201005 -5.971762,19.380299 -0.0025,0.227005 -0.0072,0.444266 -0.01438,0.654839 -1.900575,2.484084 -2.843767,4.572058 -2.913949,5.033007 -1.6835991,3.30412 -3.3925201,8.276362 -4.783184,15.824922 0,0 0.97249,-2.97199 2.9245944,-6.338175 C 6.8517177,-12.16827 8.0779316,-2.415226 15.877947,10.937557 33.852897,37.90417 62.218844,42.88516 85.405567,34.73 108.59229,26.57483 126.59979,5.283511 123.85782,-20.294503 Z"/></clipPath><linearGradient id="linearGradient2964" x1="-231.535" x2="-294.732" y1="33.867" y2="33.867" gradientUnits="userSpaceOnUse" xlink:href="#linearGradient1464"/><clipPath id="clipPath2968" clipPathUnits="userSpaceOnUse"><circle id="circle2970" cx="-263.133" cy="33.867" r="31.599" fill="#fff" fill-opacity="1" stroke="none" stroke-dasharray="none" stroke-linecap="round" stroke-miterlimit="4" stroke-opacity=".929" stroke-width=".529"/></clipPath><linearGradient id="linearGradient2994" x1="-243.344" x2="-263.133" y1="64.63" y2="33.867" gradientTransform="matrix(1.058784,0,0,1.058784,15.468015,-1.9908167)" gradientUnits="userSpaceOnUse" xlink:href="#linearGradient1413-6"/><linearGradient id="linearGradient2996" x1="176.695" x2="146.584" y1="238.312" y2="186.157" gradientTransform="matrix(1.058784,0,0,1.058784,-9.4581054,-12.400286)" gradientUnits="userSpaceOnUse" xlink:href="#linearGradient1423-7"/><linearGradient id="linearGradient2998" x1="117.938" x2="93.729" y1="-213.735" y2="-259.55" gradientTransform="matrix(1.058784,0,0,1.058784,-6.0099097,14.391102)" gradientUnits="userSpaceOnUse" xlink:href="#linearGradient1403-3"/><linearGradient id="linearGradient3118-6" x1="71.204" x2="71.204" y1="15.369" y2="40.496" gradientTransform="matrix(1.1016932,0,0,1.1016932,6.8516305,188.44494)" gradientUnits="userSpaceOnUse" xlink:href="#linearGradient4806-6"/><radialGradient id="radialGradient3163-0" cx="99.157" cy="186.171" r="62.769" fx="99.157" fy="186.171" gradientTransform="matrix(0.18175298,0,0,0.05678406,68.23785,219.82706)" gradientUnits="userSpaceOnUse" xlink:href="#linearGradient3820-7-2-8-6"/><radialGradient id="radialGradient5521-1-6" cx="7.461" cy="9.957" r="12.672" fx="6.93" fy="9.957" gradientTransform="matrix(0,12.398866,-24.426353,0,330.14116,101.00815)" gradientUnits="userSpaceOnUse" xlink:href="#linearGradient2867-449-88-871-390-598-476-591-434-148-57-177-3-8-8-9"/><linearGradient id="linearGradient3477" x1="-164.424" x2="-163.908" y1="1.053" y2="126.378" gradientTransform="matrix(0.26458333,0,0,0.26458333,60.192805,263.13332)" gradientUnits="userSpaceOnUse" xlink:href="#linearGradient4806-6"/><clipPath id="clipPath3489" clipPathUnits="userSpaceOnUse"><path id="path3491" fill="url(#linearGradient3493)" fill-opacity="1" stroke="none" stroke-dasharray="none" stroke-linecap="round" stroke-miterlimit="4" stroke-opacity="1" stroke-width=".529" d="m 16.933431,264.26762 c -0.224314,0 -0.447924,0.007 -0.670761,0.016 a 15.799326,15.799326 0 0 0 -0.114721,0.006 c -0.504333,0.025 -1.004157,0.0735 -1.498616,0.14573 a 15.799326,15.799326 0 0 0 -0.06925,0.0103 c -0.499449,0.0752 -0.992717,0.17397 -1.478981,0.29559 a 15.799326,15.799326 0 0 0 -0.06718,0.0171 c -0.488389,0.12443 -0.969351,0.27173 -1.441257,0.44131 a 15.799326,15.799326 0 0 0 -0.06615,0.0238 c -0.472318,0.17212 -0.935461,0.36673 -1.388028,0.5824 a 15.799326,15.799326 0 0 0 -0.06666,0.0315 c -0.4550885,0.21948 -0.8989033,0.46059 -1.3306689,0.72244 a 15.799326,15.799326 0 0 0 -0.047024,0.0279 c -0.4318953,0.26398 -0.85104,0.54902 -1.2562549,0.8537 a 15.799326,15.799326 0 0 0 -0.050644,0.0372 c -0.4080193,0.30933 -0.8012748,0.63916 -1.1787399,0.98806 a 15.799326,15.799326 0 0 0 -0.018603,0.0165 c -0.3825057,0.35468 -0.7484218,0.72896 -1.0960579,1.12242 a 15.799326,15.799326 0 0 0 -0.00156,0.002 c -0.6902768,0.78148 -1.3088885,1.63711 -1.8417461,2.56005 -0.1144693,0.19826 -0.2224458,0.39915 -0.3276282,0.60099 a 15.799326,15.799326 0 0 0 -0.04341,0.0847 c -0.2322143,0.45224 -0.4415288,0.91281 -0.6273509,1.38028 a 15.799326,15.799326 0 0 0 -0.022222,0.0563 c -0.1861973,0.47372 -0.3486224,0.95398 -0.4872958,1.43969 a 15.799326,15.799326 0 0 0 -0.014986,0.0543 c -0.1376944,0.48887 -0.251452,0.98271 -0.3410664,1.48002 a 15.799326,15.799326 0 0 0 -0.010851,0.0605 c -0.087334,0.49569 -0.1510692,0.99462 -0.1906852,1.495 a 15.799326,15.799326 0 0 0 -0.0062,0.078 c -0.037304,0.50278 -0.05012,1.00674 -0.039275,1.5105 a 15.799326,15.799326 0 0 0 5.159e-4,0.0563 c 0.012848,0.51213 0.050559,1.02344 0.1131729,1.53272 a 15.799326,15.799326 0 0 0 0.00362,0.03 c 0.064016,0.5126 0.1532333,1.02278 0.2676842,1.52859 a 15.799326,15.799326 0 0 0 0.00517,0.0248 c 0.3462788,1.51902 0.9194377,2.99876 1.7208262,4.38681 0.1105931,0.19155 0.226338,0.3791 0.3441647,0.56482 a 15.799326,15.799326 0 0 0 0.071313,0.11007 c 0.2733675,0.42309 0.5647584,0.83104 0.8738473,1.22215 a 15.799326,15.799326 0 0 0 0.038759,0.0486 c 0.3154918,0.39599 0.6485917,0.77465 0.9978708,1.13585 a 15.799326,15.799326 0 0 0 0.048577,0.0501 c 0.3522133,0.36102 0.7206826,0.70373 1.1038072,1.02784 a 15.799326,15.799326 0 0 0 0.053745,0.0455 c 0.3840189,0.32195 0.7825475,0.62517 1.1942419,0.90847 a 15.799326,15.799326 0 0 0 0.067696,0.0465 c 0.4156366,0.28285 0.8442536,0.54568 1.2846764,0.78755 a 15.799326,15.799326 0 0 0 0.052192,0.0289 c 0.4480692,0.24388 0.9079077,0.46586 1.3782127,0.66559 a 15.799326,15.799326 0 0 0 0.03617,0.016 c 0.477654,0.20144 0.965839,0.37978 1.46296,0.53381 a 15.799326,15.799326 0 0 0 0.0093,0.003 c 1.490382,0.46079 3.060486,0.70486 4.665348,0.70486 0.22257,0 0.443958,-0.006 0.665075,-0.0155 a 15.799326,15.799326 0 0 0 0.125058,-0.007 c 0.50241,-0.0251 1.000842,-0.0738 1.493449,-0.14572 a 15.799326,15.799326 0 0 0 0.06976,-0.0103 c 0.499449,-0.0752 0.992714,-0.17397 1.478982,-0.29559 a 15.799326,15.799326 0 0 0 0.06718,-0.0171 c 0.488389,-0.12443 0.969352,-0.27172 1.441257,-0.44131 a 15.799326,15.799326 0 0 0 0.06615,-0.0238 c 0.472278,-0.17209 0.934982,-0.36623 1.387512,-0.58188 a 15.799326,15.799326 0 0 0 0.06873,-0.0326 c 0.452414,-0.21827 0.894067,-0.45815 1.323435,-0.7183 a 15.799326,15.799326 0 0 0 0.05736,-0.0341 c 0.434539,-0.26579 0.855991,-0.5529 1.263489,-0.8599 a 15.799326,15.799326 0 0 0 0.02946,-0.0217 c 0.415385,-0.31445 0.816184,-0.64918 1.199928,-1.00459 a 15.799326,15.799326 0 0 0 0.0031,-0.003 c 0.384122,-0.35597 0.751721,-0.73201 1.100706,-1.12706 a 15.799326,15.799326 0 0 1 5.29e-4,-5.3e-4 c 0.346956,-0.3928 0.675587,-0.80402 0.984435,-1.23352 a 15.799326,15.799326 0 0 0 0.0016,-0.002 c 0.305043,-0.42436 0.590656,-0.86619 0.855244,-1.32447 0.110885,-0.19206 0.215638,-0.38645 0.31781,-0.58188 a 15.799326,15.799326 0 0 0 0.05891,-0.1142 c 0.228841,-0.4465 0.434922,-0.90137 0.618567,-1.36271 a 15.799326,15.799326 0 0 0 0.02842,-0.0713 c 0.183711,-0.46813 0.344313,-0.94283 0.481624,-1.42266 a 15.799326,15.799326 0 0 0 0.02066,-0.0734 c 0.135609,-0.48268 0.24766,-0.96999 0.336412,-1.46089 a 15.799326,15.799326 0 0 0 0.01394,-0.0785 c 0.08652,-0.49273 0.149756,-0.98833 0.189134,-1.48569 a 15.799326,15.799326 0 0 0 0.0062,-0.078 c 0.03701,-0.49876 0.05017,-0.99887 0.03979,-1.49861 a 15.799326,15.799326 0 0 0 -0.0016,-0.0775 c -0.01296,-0.50461 -0.05035,-1.00865 -0.111623,-1.5105 a 15.799326,15.799326 0 0 0 -0.0057,-0.0517 c -0.06401,-0.51034 -0.153156,-1.01826 -0.267165,-1.52187 a 15.799326,15.799326 0 0 0 -0.0041,-0.0212 C 32.222039,276.0509 32.08195,275.55006 31.9165,275.05546 a 15.799326,15.799326 0 0 0 -0.0062,-0.0191 c -0.166206,-0.49474 -0.35751,-0.98327 -0.574124,-1.46347 a 15.799326,15.799326 0 0 0 -0.0011,-0.003 c -0.214976,-0.47635 -0.454747,-0.94473 -0.719336,-1.40301 -0.110908,-0.1921 -0.226502,-0.38015 -0.34468,-0.56638 a 15.799326,15.799326 0 0 0 -0.07028,-0.10852 c -0.272291,-0.42142 -0.562494,-0.82728 -0.870233,-1.21698 a 15.799326,15.799326 0 0 0 -0.04703,-0.0589 c -0.313412,-0.39301 -0.64443,-0.76939 -0.991153,-1.12809 a 15.799326,15.799326 0 0 0 -0.05374,-0.0553 c -0.350589,-0.35918 -0.716928,-0.70056 -1.098127,-1.02319 a 15.799326,15.799326 0 0 0 -0.05787,-0.0491 c -0.385741,-0.32331 -0.786281,-0.62726 -1.199928,-0.91158 a 15.799326,15.799326 0 0 0 -0.05376,-0.0372 c -0.415004,-0.28274 -0.842857,-0.54517 -1.282607,-0.78704 a 15.799326,15.799326 0 0 0 -0.06822,-0.0377 c -0.444588,-0.24168 -0.900896,-0.46219 -1.367356,-0.66042 a 15.799326,15.799326 0 0 0 -0.04134,-0.0181 c -0.473679,-0.19971 -0.957729,-0.37607 -1.45056,-0.52917 a 15.799326,15.799326 0 0 0 -0.02687,-0.009 c -0.496509,-0.15327 -1.002099,-0.283 -1.514637,-0.38706 -0.0017,-3.5e-4 -0.0034,-6.8e-4 -0.0052,-10e-4 a 15.799326,15.799326 0 0 0 -0.0026,-5.2e-4 c -0.513168,-0.10392 -1.033233,-0.18297 -1.559087,-0.23564 -0.520877,-0.0522 -1.047099,-0.0785 -1.577165,-0.0785 z"/></clipPath><linearGradient id="linearGradient4632-0-6-4"><stop id="stop880" offset="0" stop-color="#e9e9e9" stop-opacity="1"/><stop id="stop882" offset="1" stop-color="#b4b4b4" stop-opacity="1"/></linearGradient><linearGradient id="linearGradient3097" x1="97.539" x2="97.539" y1="16.962" y2="44.261" gradientTransform="matrix(1.3944386,0,0,1.4212508,-74.584258,-4.0276646)" gradientUnits="userSpaceOnUse" xlink:href="#linearGradient8272"/><linearGradient id="linearGradient8272"><stop id="stop8274" offset="0" stop-color="#fff" stop-opacity=".584"/><stop id="stop8276" offset=".022" stop-color="#fff" stop-opacity=".235"/><stop id="stop8278" offset=".979" stop-color="#fff" stop-opacity=".157"/><stop id="stop8280" offset="1" stop-color="#fff" stop-opacity=".392"/></linearGradient><linearGradient id="linearGradient3100" x1="22.935" x2="22.935" y1="49.629" y2="36.599" gradientTransform="matrix(1.5884766,0,0,1.4075832,-4.2567679,-2.0220617)" gradientUnits="userSpaceOnUse" xlink:href="#linearGradient6129-963-697-142-998-580-273"/><linearGradient id="linearGradient6129-963-697-142-998-580-273"><stop id="stop2661" offset="0" stop-color="#0a0a0a" stop-opacity=".498"/><stop id="stop2663" offset="1" stop-color="#0a0a0a" stop-opacity="0"/></linearGradient><linearGradient id="linearGradient3103" x1="-90.425" x2="-91" y1="4.777" y2="119.06" gradientTransform="matrix(1.976982,0,0,2.029703,292.08955,-17.175454)" gradientUnits="userSpaceOnUse" xlink:href="#linearGradient4632-0-6-4-4-3"/><linearGradient id="linearGradient4632-0-6-4-4-3"><stop id="stop4634-4-4-7" offset="0" stop-color="#d4d4d4" stop-opacity="1"/><stop id="stop4941" offset=".351" stop-color="#efefef" stop-opacity="1"/><stop id="stop4636-3-1-5" offset="1" stop-color="#fafafa" stop-opacity="1"/></linearGradient><linearGradient id="linearGradient22388" x1="302.857" x2="302.857" y1="366.648" y2="609.505" gradientTransform="matrix(0.2134205,0,0,0.06641689,-13.147881,75.518568)" gradientUnits="userSpaceOnUse" xlink:href="#linearGradient5048-585"/><linearGradient id="linearGradient5048-585"><stop id="stop2667" offset="0" stop-color="#000" stop-opacity="0"/><stop id="stop2669" offset=".5" stop-color="#000" stop-opacity="1"/><stop id="stop2671" offset="1" stop-color="#000" stop-opacity="0"/></linearGradient><radialGradient id="radialGradient22390" cx="605.714" cy="486.648" r="117.143" fx="605.714" fy="486.648" gradientTransform="matrix(0.08277507,0,0,0.06641689,65.628912,75.518568)" gradientUnits="userSpaceOnUse" xlink:href="#linearGradient3820-7-2"/><radialGradient id="radialGradient22392" cx="605.714" cy="486.648" r="117.143" fx="605.714" fy="486.648" gradientTransform="matrix(-0.08277505,0,0,0.06641689,62.347829,75.518568)" gradientUnits="userSpaceOnUse" xlink:href="#linearGradient3820-7-2"/><linearGradient id="linearGradient3110" x1="97.539" x2="97.539" y1="8.81" y2="44.261" gradientTransform="matrix(0.89535244,0,0,0.88899361,-35.768379,240.48785)" gradientUnits="userSpaceOnUse" xlink:href="#linearGradient9235"/><linearGradient id="linearGradient9235"><stop id="stop9237" offset="0" stop-color="#fff" stop-opacity="1"/><stop id="stop9239" offset=".109" stop-color="#fff" stop-opacity=".235"/><stop id="stop9241" offset=".979" stop-color="#fff" stop-opacity=".157"/><stop id="stop9243" offset="1" stop-color="#fff" stop-opacity=".392"/></linearGradient><linearGradient id="linearGradient3113" x1="-51.786" x2="-51.786" y1="53.514" y2="3.634" gradientTransform="matrix(2.1683519,0,0,2.2464645,141.9485,-4.59047)" gradientUnits="userSpaceOnUse" xlink:href="#linearGradient3104-8-8-97-4-6-11-5-5-1-0"/><linearGradient id="linearGradient3104-8-8-97-4-6-11-5-5-1-0"><stop id="stop3106-5-4-3-5-0-2-1-0-1-2" offset="0" stop-color="#000" stop-opacity=".322"/><stop id="stop3108-4-3-7-8-2-0-7-9-4-9" offset="1" stop-color="#000" stop-opacity=".278"/></linearGradient><linearGradient id="linearGradient6404-7-5"><stop id="stop6406-1-8" offset="0" stop-color="#fafafa" stop-opacity="1"/><stop id="stop6408-9-6" offset="1" stop-color="#8cd5ff" stop-opacity="1"/></linearGradient><linearGradient id="linearGradient3998" x1="63.039" x2="62.989" y1="5.465" y2="16.998" gradientTransform="matrix(1.4232547,0,0,1.3977951,-60.925358,-2.4662903)" gradientUnits="userSpaceOnUse" xlink:href="#linearGradient4632-0-6-4-4-3"/><clipPath id="clipPath4951" clipPathUnits="userSpaceOnUse"><path id="path4953" fill="url(#linearGradient4955)" fill-opacity="1" fill-rule="nonzero" stroke="none" stroke-width=".265" d="m 16.737751,248.23984 c -0.372134,0 -0.671721,0.29959 -0.671721,0.67172 v 2.00467 h -1.007584 c -0.372135,0 -0.671723,0.29959 -0.671723,0.67173 v 3.69447 c 0,0.37213 0.299588,0.67172 0.671723,0.67172 h 37.616452 c 0.372134,0 0.671722,-0.29959 0.671722,-0.67172 v -3.69447 c 0,-0.37214 -0.299588,-0.67173 -0.671722,-0.67173 H 31.515643 v -2.00467 c 0,-0.37213 -0.299588,-0.67172 -0.671722,-0.67172 z" color="#000" display="inline" enable-background="accumulate" overflow="visible" visibility="visible" style="marker:none"/></clipPath><linearGradient id="linearGradient4955" x1="63.039" x2="62.989" y1="5.465" y2="16.998" gradientTransform="matrix(0.91385485,0,0,0.89750757,-26.99816,240.43266)" gradientUnits="userSpaceOnUse" xlink:href="#linearGradient4632-0-6-4-4-3"/><clipPath id="clipPath5684" clipPathUnits="userSpaceOnUse"><path d="m 1.1593302,-85.366757 86.7063488,7.22e-4 c 1.252632,0 2.064444,0.888665 2.064444,1.993454 l -2.039272,53.886083 c 0.02897,1.397876 -0.413001,1.952168 -1.868382,1.922835 l -82.5272169,-0.03513 c -1.2526184,0 -2.51573264,-0.824973 -2.51573264,-1.929802 l -1.88462617,-53.843926 c 0,-1.104811 0.81180977,-1.994222 2.06443691,-1.994222 z" style="marker:none" id="path5686" fill="url(#linearGradient5688)" fill-opacity="1" fill-rule="nonzero" stroke="none" stroke-width=".265" display="inline" enable-background="accumulate" overflow="visible" visibility="visible"/></clipPath><linearGradient id="linearGradient5688" x1="-90.425" x2="-91" y1="4.777" y2="119.06" gradientTransform="matrix(0.75070435,0,0,0.77072369,106.82097,-119.66386)" gradientUnits="userSpaceOnUse" xlink:href="#linearGradient4632-0-6-4-4-3"/><clipPath id="clipPath5712" clipPathUnits="userSpaceOnUse"><path id="path5714" fill="url(#linearGradient5716)" fill-opacity="1" fill-rule="nonzero" stroke="none" stroke-width=".265" d="m 3.647426,19.35321 60.415332,5.03e-4 c 0.87281,0 1.438466,0.619205 1.438466,1.389001 L 64.080297,58.28951 c 0.02019,0.974013 -0.287771,1.360234 -1.301853,1.339795 L 5.2750519,59.604831 c -0.8728006,0 -1.7529146,-0.574826 -1.7529146,-1.34465 L 2.2089657,20.742756 c 0,-0.769812 0.5656536,-1.389536 1.4384603,-1.389536 z" display="inline" enable-background="accumulate" overflow="visible" visibility="visible" style="marker:none"/></clipPath><linearGradient id="linearGradient5716" x1="-90.425" x2="-91" y1="4.777" y2="119.06" gradientTransform="matrix(0.52307649,0,0,0.53702559,77.270443,-4.5443582)" gradientUnits="userSpaceOnUse" xlink:href="#linearGradient4632-0-6-4-4-3"/><clipPath id="clipPath1540" clipPathUnits="userSpaceOnUse"><path id="path1542" fill="none" stroke="#555761" stroke-dasharray="none" stroke-dashoffset="0" stroke-linecap="round" stroke-linejoin="round" stroke-miterlimit="4" stroke-opacity="1" stroke-width=".265" d="m 3.6590071,19.353232 60.4153319,5.03e-4 c 0.87281,0 1.438465,0.619205 1.438465,1.388989 l -1.420926,37.546794 c 0.02019,0.974027 -0.287771,1.360247 -1.301853,1.339808 L 5.286633,59.604852 c -0.8728004,0 -1.7529146,-0.574826 -1.7529146,-1.34465 L 2.2205469,20.742768 c 0,-0.769798 0.5656537,-1.389523 1.4384602,-1.389523 z" display="inline" enable-background="accumulate" opacity=".834" overflow="visible" visibility="visible" style="marker:none"/></clipPath><clipPath id="clipPath1556" clipPathUnits="userSpaceOnUse"><path id="path1558" fill="none" fill-opacity="1" stroke="#206b00" stroke-dasharray="none" stroke-linecap="round" stroke-linejoin="round" stroke-miterlimit="4" stroke-opacity="1" stroke-width=".265" d="m 13.785156,73.146484 c -3.298797,0 -5.4355466,2.342428 -5.4355466,5.251954 L 13.3125,220.19531 c 0,2.90957 3.326226,5.08203 6.625,5.08203 l 39.988281,0.0176 40.767579,-152.148436 z" opacity="1"/></clipPath><clipPath id="clipPath1582" clipPathUnits="userSpaceOnUse"><path id="path1584" fill="none" fill-opacity="1" stroke="#ad5f00" stroke-dasharray="none" stroke-linecap="round" stroke-linejoin="round" stroke-miterlimit="4" stroke-opacity="1" stroke-width=".265" d="m 100.69336,73.146484 -40.767579,152.148436 95.302739,0.041 40.77929,-152.187502 z" opacity="1"/></clipPath><clipPath id="clipPath1599" clipPathUnits="userSpaceOnUse"><path id="path1601" fill="none" fill-opacity="1" stroke="#002e99" stroke-dasharray="none" stroke-linecap="round" stroke-linejoin="round" stroke-miterlimit="4" stroke-opacity="1" stroke-width=".265" d="m 196.00781,73.148438 -40.77929,152.187502 82.04492,0.0352 c 3.83275,0.0772 4.99623,-1.38314 4.91992,-5.06445 l 5.37109,-141.908202 c 0,-2.909466 -2.13869,-5.25 -5.4375,-5.25 z" opacity="1"/></clipPath><linearGradient id="linearGradient3097-7" x1="97.539" x2="97.539" y1="16.962" y2="44.261" gradientTransform="matrix(1.4106598,0,0,1.4413252,-75.845845,-6.6205824)" gradientUnits="userSpaceOnUse" xlink:href="#linearGradient8272"/><linearGradient id="linearGradient3100-2" x1="22.935" x2="22.935" y1="49.629" y2="36.599" gradientTransform="matrix(0.20086939,0,0,0.17843308,-0.58753128,58.693332)" gradientUnits="userSpaceOnUse" xlink:href="#linearGradient6129-963-697-142-998-580-273"/><linearGradient id="linearGradient3103-2" x1="-90.425" x2="-91" y1="4.777" y2="119.06" gradientTransform="matrix(0.06614517,0,0,0.06807635,9.7233836,58.373595)" gradientUnits="userSpaceOnUse" xlink:href="#linearGradient4632-0-6-4-4-3"/><radialGradient id="radialGradient22390-0" cx="605.714" cy="486.648" r="117.143" fx="605.714" fy="486.648" gradientTransform="matrix(0.08277507,0,0,0.06641689,65.628912,75.518568)" gradientUnits="userSpaceOnUse" xlink:href="#linearGradient3820-7-2"/><radialGradient id="radialGradient22392-6" cx="605.714" cy="486.648" r="117.143" fx="605.714" fy="486.648" gradientTransform="matrix(-0.08277505,0,0,0.06641689,62.347829,75.518568)" gradientUnits="userSpaceOnUse" xlink:href="#linearGradient3820-7-2"/><linearGradient id="linearGradient3110-2" x1="97.539" x2="97.539" y1="8.81" y2="44.261" gradientTransform="matrix(1.4106598,0,0,1.4040911,-75.845845,-4.9499847)" gradientUnits="userSpaceOnUse" xlink:href="#linearGradient9235"/><linearGradient id="linearGradient3998-3" x1="59.141" x2="59.23" y1="15.984" y2="7.523" gradientTransform="matrix(0.1799764,0,0,0.17719228,-7.7535071,58.637019)" gradientUnits="userSpaceOnUse" xlink:href="#linearGradient4632-0-6-4-4-3"/><clipPath id="clipPath1390" clipPathUnits="userSpaceOnUse"><path id="path1392" fill="url(#linearGradient1394)" fill-opacity="1" fill-rule="nonzero" stroke="none" stroke-width=".265" d="m 6.8794455,7.2936277 c -0.5863108,0 -1.0583227,0.4731745 -1.0583227,1.0609292 V 11.520768 H 4.2336387 c -0.5863109,0 -1.0583228,0.473174 -1.0583228,1.060929 v 5.835111 c 0,0.587755 0.4720119,1.06093 1.0583228,1.06093 H 63.499709 c 0.586309,0 1.058323,-0.473175 1.058323,-1.06093 v -5.835111 c 0,-0.587755 -0.472014,-1.060929 -1.058323,-1.060929 H 30.162542 V 8.3545569 c 0,-0.5877547 -0.472011,-1.0609292 -1.058322,-1.0609292 z" color="#000" display="inline" enable-background="accumulate" overflow="visible" visibility="visible" style="marker:none"/></clipPath><linearGradient id="linearGradient1394" x1="59.141" x2="59.23" y1="15.984" y2="7.523" gradientTransform="matrix(1.4398111,0,0,1.4175382,-62.028051,-5.0371719)" gradientUnits="userSpaceOnUse" xlink:href="#linearGradient4632-0-6-4-4-3"/><clipPath id="clipPath1417" clipPathUnits="userSpaceOnUse"><path d="m 3.3076063,17.090535 61.1181287,5.29e-4 c 0.882965,0 1.4552,0.627937 1.4552,1.408612 l -1.437457,38.077115 c 0.02043,0.987785 -0.291119,1.379442 -1.316998,1.358728 L 4.954166,57.910754 c -0.8829535,0 -1.7733044,-0.582954 -1.7733044,-1.363634 L 1.8524127,18.499699 c 0,-0.78068 0.5722351,-1.409164 1.4551936,-1.409164 z" style="marker:none" id="path1419" fill="url(#linearGradient1421)" fill-opacity="1" fill-rule="nonzero" stroke="none" stroke-width=".265" display="inline" enable-background="accumulate" overflow="visible" visibility="visible"/></clipPath><linearGradient id="linearGradient1421" x1="-90.425" x2="-91" y1="4.777" y2="119.06" gradientTransform="matrix(0.52916132,0,0,0.54461077,77.787063,-7.1445596)" gradientUnits="userSpaceOnUse" xlink:href="#linearGradient4632-0-6-4-4-3"/><linearGradient id="linearGradient3097-3" x1="97.539" x2="97.539" y1="16.962" y2="44.261" gradientTransform="matrix(0.70533704,0,0,0.71889921,36.77589,-5.2886231)" gradientUnits="userSpaceOnUse" xlink:href="#linearGradient8272"/><linearGradient id="linearGradient3100-3" x1="22.935" x2="22.935" y1="49.629" y2="36.599" gradientTransform="matrix(0.8034856,0,0,0.71198583,72.349046,-4.2741551)" gradientUnits="userSpaceOnUse" xlink:href="#linearGradient6129-963-697-142-998-580-273"/><linearGradient id="linearGradient3103-4" x1="-90.425" x2="-91" y1="4.777" y2="119.06" gradientTransform="matrix(0.26458333,0,0,0.27163908,113.59312,-5.5499706)" gradientUnits="userSpaceOnUse" xlink:href="#linearGradient4632-0-6-4-4"/><radialGradient id="radialGradient22390-3" cx="605.714" cy="486.648" r="117.143" fx="605.714" fy="486.648" gradientTransform="matrix(0.08277507,0,0,0.06641689,65.628912,75.518568)" gradientUnits="userSpaceOnUse" xlink:href="#linearGradient3820-7-2"/><radialGradient id="radialGradient22392-61" cx="605.714" cy="486.648" r="117.143" fx="605.714" fy="486.648" gradientTransform="matrix(-0.08277505,0,0,0.06641689,62.347829,75.518568)" gradientUnits="userSpaceOnUse" xlink:href="#linearGradient3820-7-2"/><linearGradient id="linearGradient3110-0" x1="97.539" x2="97.539" y1="8.81" y2="44.261" gradientTransform="matrix(0.70533704,0,0,0.70032771,36.77589,-4.4553682)" gradientUnits="userSpaceOnUse" xlink:href="#linearGradient9235"/><linearGradient id="linearGradient3998-4" x1="63.039" x2="62.989" y1="5.465" y2="16.998" gradientTransform="matrix(0.7199128,0,0,0.70703481,43.684856,-4.4988551)" gradientUnits="userSpaceOnUse" xlink:href="#linearGradient6404-7-5"/><linearGradient id="linearGradient3097-9" x1="97.539" x2="97.539" y1="16.962" y2="44.261" gradientTransform="matrix(2.6658408,0,0,2.7170994,-143.33284,-5.19882)" gradientUnits="userSpaceOnUse" xlink:href="#linearGradient8272"/><linearGradient id="linearGradient3100-25" x1="22.935" x2="22.935" y1="49.629" y2="36.599" gradientTransform="matrix(3.036796,0,0,2.6909701,-8.883113,-1.36461)" gradientUnits="userSpaceOnUse" xlink:href="#linearGradient6129-963-697-142-998-580-273"/><linearGradient id="linearGradient3103-44" x1="-90.425" x2="-91" y1="4.777" y2="119.06" gradientTransform="matrix(1,0,0,1.0266674,147,-6.18659)" gradientUnits="userSpaceOnUse" xlink:href="#linearGradient4632-0-6-4-4"/><radialGradient id="radialGradient22390-8" cx="605.714" cy="486.648" r="117.143" fx="605.714" fy="486.648" gradientTransform="matrix(0.08277507,0,0,0.06641689,65.628912,75.518568)" gradientUnits="userSpaceOnUse" xlink:href="#linearGradient3820-7-2"/><radialGradient id="radialGradient22392-8" cx="605.714" cy="486.648" r="117.143" fx="605.714" fy="486.648" gradientTransform="matrix(-0.08277505,0,0,0.06641689,62.347829,75.518568)" gradientUnits="userSpaceOnUse" xlink:href="#linearGradient3820-7-2"/><linearGradient id="linearGradient3110-4" x1="97.539" x2="97.539" y1="8.81" y2="44.261" gradientTransform="matrix(2.6658408,0,0,2.6469079,-143.33284,-2.04951)" gradientUnits="userSpaceOnUse" xlink:href="#linearGradient9235"/><linearGradient id="linearGradient3998-9" x1="63.039" x2="62.989" y1="5.465" y2="16.998" gradientTransform="matrix(2.7209303,0,0,2.6722576,-117.22021,-2.21387)" gradientUnits="userSpaceOnUse" xlink:href="#linearGradient6404-7-5"/><clipPath id="clipPath3255" clipPathUnits="userSpaceOnUse"><path id="path3257" fill="#abacae" stroke-width=".265" d="m 8.3494097,64.857389 c 3.969e-4,0.04673 -0.011274,0.09345 -0.0351,0.135653 -0.050556,0.09 -1.104338,1.961536 -1.1550737,2.051557 -0.024178,0.04291 -0.058911,0.07766 -0.1000112,0.101659 -0.04111,0.024 -0.088364,0.03727 -0.1376545,0.03727 H 1.5070202 c -0.049283,0 -0.096563,-0.01324 -0.1376547,-0.03727 -0.041095,-0.02398 -0.07582,-0.05873 -0.1000186,-0.101659 -0.050738,-0.09002 -1.1045178,-1.961537 -1.15507598,-2.051557 -0.02382746,-0.0422 -0.03545488,-0.08892 -0.0351004,-0.135653 z"/></clipPath><clipPath id="clipPath3279" clipPathUnits="userSpaceOnUse"><path id="path3281" fill="#abacae" stroke-width=".265" d="m 8.3494097,64.857389 c 3.969e-4,0.04673 -0.011274,0.09345 -0.0351,0.135653 -0.050556,0.09 -1.104338,1.961536 -1.1550737,2.051557 -0.024178,0.04291 -0.058911,0.07766 -0.1000112,0.101659 -0.04111,0.024 -0.088364,0.03727 -0.1376545,0.03727 H 1.5070202 c -0.049283,0 -0.096563,-0.01324 -0.1376547,-0.03727 -0.041095,-0.02398 -0.07582,-0.05873 -0.1000186,-0.101659 -0.050738,-0.09002 -1.1045178,-1.961537 -1.15507598,-2.051557 -0.02382746,-0.0422 -0.03545488,-0.08892 -0.0351004,-0.135653 z"/></clipPath><clipPath id="clipPath3289" clipPathUnits="userSpaceOnUse"><path id="path3291" fill="#7e8087" stroke-width=".265" d="m 2.8864703,60.018901 c -0.040736,0.02346 -0.075288,0.05744 -0.099649,0.09947 -0.1174652,0.202368 -2.55379673,4.402051 -2.67090479,4.603899 -0.02418006,0.04182 -0.03655543,0.08837 -0.03673057,0.135103 -3.8656e-4,0.04674 0.01126887,0.09347 0.0351004,0.135656 0.0505589,0.09001 1.10433776,1.961533 1.15507416,2.051556 0.024176,0.04291 0.05891,0.07766 0.1000187,0.101648 L 4.2210829,62.275313 2.8972925,60.01314 c -0.00365,0.0019 -0.00728,0.0039 -0.010824,0.0057 z"/></clipPath><linearGradient id="linearGradient3307" x1="7.12" x2="3.724" y1="62.263" y2="63.833" gradientUnits="userSpaceOnUse" xlink:href="#linearGradient1464"/><clipPath id="clipPath3311" clipPathUnits="userSpaceOnUse"><path id="path3313" fill="#7e8087" stroke-width=".265" d="M 8.2037314,64.814824 C 8.2035584,64.769731 8.1916214,64.72484 8.1682857,64.68448 8.0549602,64.489378 5.7046291,60.437681 5.59146,60.242759 c -0.023518,-0.04053 -0.056835,-0.07333 -0.096138,-0.09596 -0.0393,-0.02262 -0.084556,-0.0351 -0.1314013,-0.0351 H 3.0646505 c -0.046844,0 -0.092099,0.01238 -0.1314014,0.0351 l 2.7329435,4.668031 z"/></clipPath><linearGradient id="linearGradient3323" x1="1.564" x2="4.01" y1="62.143" y2="63.638" gradientUnits="userSpaceOnUse" xlink:href="#linearGradient1464"/><clipPath id="clipPath3336" clipPathUnits="userSpaceOnUse"><path id="path3338" fill="#abacae" stroke-width=".265" d="m 2.9332486,60.146794 c -0.039301,0.02263 -0.072636,0.05542 -0.096138,0.09596 -0.1133269,0.195239 -2.46382767,4.246969 -2.57681007,4.441706 -0.0233282,0.04035 -0.0352676,0.08526 -0.0354366,0.130344 -3.728e-4,0.04509 0.0108719,0.09018 0.0338638,0.130877 0.0487777,0.08684 1.06543247,1.892429 1.11438147,1.97928 0.023324,0.0414 0.056835,0.07492 0.096495,0.09807 L 4.2208436,62.323711 2.94369,60.141234 c -0.00352,0.0018 -0.00702,0.0038 -0.010443,0.0055 z"/></clipPath><linearGradient id="linearGradient3348" x1="8.455" x2=".162" y1="66.02" y2="65.961" gradientUnits="userSpaceOnUse" xlink:href="#linearGradient1464"/><clipPath id="clipPath3352" clipPathUnits="userSpaceOnUse"><path id="path3354" fill="#d4d4d4" stroke-width=".265" d="m 8.2037314,64.814824 c 3.704e-4,0.04508 -0.010877,0.09016 -0.033864,0.130874 -0.048775,0.08683 -1.0654329,1.892432 -1.1143811,1.979282 -0.023326,0.0414 -0.056836,0.07492 -0.096488,0.09808 -0.039662,0.02316 -0.085251,0.03596 -0.1328049,0.03596 H 1.602396 c -0.047547,0 -0.093161,-0.01277 -0.1328052,-0.03596 -0.039647,-0.02313 -0.073149,-0.05666 -0.096495,-0.09808 -0.04895,-0.08685 -1.06560615,-1.892433 -1.11438319,-1.979282 -0.022988,-0.04071 -0.0342058,-0.08579 -0.0338638,-0.130874 z"/></clipPath></defs><metadata id="metadata5"/><g id="layer2" display="none" transform="translate(0,-59.266666)"><rect id="rect849" width="8.467" height="8.467" x="0" y="59.267" fill="#d4d4d4" fill-opacity=".404" stroke="none" stroke-dasharray="none" stroke-linecap="round" stroke-miterlimit="4" stroke-opacity="1" stroke-width=".794"/></g><g id="layer1" display="none" transform="translate(0,-288.53331)"><g id="layer1-5" display="none" transform="matrix(0.26458333,0,0,0.26458333,-80.45223,213.29417)"><rect id="rect1023" width="256" height="256" x="0" y="0" fill="#445567" fill-opacity=".561" fill-rule="evenodd" stroke="none" stroke-dasharray="none" stroke-dashoffset="0" stroke-linecap="round" stroke-linejoin="round" stroke-miterlimit="4" stroke-opacity=".643" stroke-width="1" opacity="1" paint-order="markers fill stroke"/></g><g id="g1244"><circle id="path2956" cx="-263.133" cy="33.867" r="31.599" fill="none" fill-opacity="1" stroke="url(#linearGradient2964)" stroke-dasharray="none" stroke-linecap="round" stroke-miterlimit="4" stroke-opacity=".929" stroke-width=".5" clip-path="url(#clipPath2968)" transform="matrix(0,-1.058784,1.058784,0,-1.9908167,-15.468015)"/><path id="path2980" fill="url(#linearGradient2994)" fill-opacity="1" stroke="none" stroke-dasharray="none" stroke-linecap="round" stroke-miterlimit="4" stroke-opacity="1" stroke-width="2.714" d="m -229.67699,33.866653 a 33.45631,33.45631 0 0 1 -16.72816,28.974015 33.45631,33.45631 0 0 1 -33.45631,0 l 16.72816,-28.974015 z" transform="rotate(-90)"/><path id="path2982" fill="url(#linearGradient2996)" fill-opacity="1" stroke="none" stroke-dasharray="none" stroke-linecap="round" stroke-miterlimit="4" stroke-opacity="1" stroke-width="2.714" d="m 194.35237,210.94681 a 33.45631,33.45631 0 0 1 -16.72816,28.97401 33.45631,33.45631 0 0 1 -33.45631,0 l 16.72816,-28.97401 z" transform="rotate(30)"/><path id="path2984" fill="url(#linearGradient2998)" fill-opacity="1" stroke="none" stroke-dasharray="none" stroke-linecap="round" stroke-miterlimit="4" stroke-opacity="1" stroke-width="2.714" d="m 135.69357,-244.81346 a 33.45631,33.45631 0 0 1 -16.72816,28.97401 33.45631,33.45631 0 0 1 -33.456306,0 l 16.728156,-28.97401 z" transform="rotate(150)"/><path id="path2986" fill="none" fill-opacity="1" stroke="#206b00" stroke-dasharray="none" stroke-linecap="round" stroke-miterlimit="4" stroke-opacity="1" stroke-width=".265" d="m 4.8926564,279.86149 c -5.9763958,-10.35143 -5.9763951,-23.1049 4.6e-6,-33.45632 5.976391,-10.35141 17.021225,-16.72815 28.974009,-16.72815 l -10e-6,33.4563"/><path id="path2988" fill="none" fill-opacity="1" stroke="#ad5f00" stroke-dasharray="none" stroke-linecap="round" stroke-miterlimit="4" stroke-opacity="1" stroke-width=".265" d="m 33.866676,229.67701 c 11.952792,1e-5 22.997625,6.37675 28.974016,16.72817 5.976391,10.35142 5.976391,23.10488 0,33.4563 L 33.866676,263.13333"/><path id="path2990" fill="none" fill-opacity="1" stroke="#0d52bf" stroke-dasharray="none" stroke-linecap="round" stroke-miterlimit="4" stroke-opacity="1" stroke-width=".265" d="m 62.840692,279.8615 c -5.976402,10.35141 -17.021234,16.72815 -28.974027,16.72815 -11.952782,0 -22.997614,-6.37674 -28.974005,-16.72815 l 28.973995,-16.72818"/><path id="path3442" fill="none" fill-opacity="1" stroke="url(#linearGradient3477)" stroke-dasharray="none" stroke-linecap="round" stroke-miterlimit="4" stroke-opacity="1" stroke-width=".25" d="m 16.933431,264.26762 c -0.224314,0 -0.447924,0.007 -0.670761,0.016 a 15.799326,15.799326 0 0 0 -0.114721,0.006 c -0.504333,0.025 -1.004157,0.0735 -1.498616,0.14573 a 15.799326,15.799326 0 0 0 -0.06925,0.0103 c -0.499449,0.0752 -0.992717,0.17397 -1.478981,0.29559 a 15.799326,15.799326 0 0 0 -0.06718,0.0171 c -0.488389,0.12443 -0.969351,0.27173 -1.441257,0.44131 a 15.799326,15.799326 0 0 0 -0.06615,0.0238 c -0.472318,0.17212 -0.935461,0.36673 -1.388028,0.5824 a 15.799326,15.799326 0 0 0 -0.06666,0.0315 c -0.4550886,0.21948 -0.8989033,0.46059 -1.3306689,0.72244 a 15.799326,15.799326 0 0 0 -0.047024,0.0279 c -0.4318953,0.26398 -0.8510402,0.54902 -1.2562549,0.8537 a 15.799326,15.799326 0 0 0 -0.050644,0.0372 c -0.4080192,0.30933 -0.8012747,0.63916 -1.1787399,0.98806 a 15.799326,15.799326 0 0 0 -0.018603,0.0165 c -0.3825055,0.35468 -0.7484216,0.72896 -1.0960577,1.12242 a 15.799326,15.799326 0 0 0 -0.00155,0.002 c -0.6902768,0.78148 -1.3088885,1.63711 -1.8417461,2.56005 -0.1144693,0.19826 -0.2224457,0.39915 -0.3276282,0.60099 a 15.799326,15.799326 0 0 0 -0.04341,0.0847 c -0.2322142,0.45224 -0.4415287,0.91281 -0.6273508,1.38028 a 15.799326,15.799326 0 0 0 -0.022222,0.0563 c -0.1862085,0.47373 -0.3486336,0.95399 -0.487307,1.4397 a 15.799326,15.799326 0 0 0 -0.014986,0.0543 c -0.1376944,0.48887 -0.251452,0.98271 -0.3410664,1.48002 a 15.799326,15.799326 0 0 0 -0.010851,0.0605 c -0.087334,0.49569 -0.1510692,0.99462 -0.1906852,1.495 a 15.799326,15.799326 0 0 0 -0.0062,0.078 c -0.037304,0.50278 -0.05012,1.00674 -0.039275,1.5105 a 15.799326,15.799326 0 0 0 5.159e-4,0.0563 c 0.012848,0.51213 0.050559,1.02344 0.1131729,1.53272 a 15.799326,15.799326 0 0 0 0.00362,0.03 c 0.064016,0.5126 0.1532334,1.02278 0.2676842,1.52859 a 15.799326,15.799326 0 0 0 0.00517,0.0248 c 0.3462788,1.51902 0.9194377,2.99876 1.7208261,4.38681 0.1105932,0.19155 0.2263379,0.3791 0.3441647,0.56482 a 15.799326,15.799326 0 0 0 0.071313,0.11007 c 0.2733675,0.42309 0.5647584,0.83104 0.8738473,1.22215 a 15.799326,15.799326 0 0 0 0.038759,0.0486 c 0.3154918,0.39599 0.6485916,0.77465 0.9978707,1.13585 a 15.799326,15.799326 0 0 0 0.048577,0.0501 c 0.3522134,0.36102 0.7206827,0.70373 1.1038073,1.02784 a 15.799326,15.799326 0 0 0 0.053745,0.0455 c 0.3840189,0.32195 0.7825475,0.62517 1.1942419,0.90847 a 15.799326,15.799326 0 0 0 0.067696,0.0465 c 0.4156366,0.28285 0.8442537,0.54568 1.2846765,0.78755 a 15.799326,15.799326 0 0 0 0.052192,0.0289 c 0.4480692,0.24388 0.9079076,0.46586 1.3782126,0.66559 a 15.799326,15.799326 0 0 0 0.03617,0.016 c 0.477654,0.20144 0.965839,0.37978 1.46296,0.53382 a 15.799326,15.799326 0 0 0 0.0093,0.003 c 1.490382,0.46079 3.060486,0.70486 4.665348,0.70486 0.22257,0 0.443958,-0.006 0.665075,-0.0155 a 15.799326,15.799326 0 0 0 0.125058,-0.007 c 0.50241,-0.0251 1.000842,-0.0738 1.493449,-0.14572 a 15.799326,15.799326 0 0 0 0.06976,-0.0103 c 0.499449,-0.0752 0.992714,-0.17397 1.478982,-0.29559 a 15.799326,15.799326 0 0 0 0.06718,-0.0171 c 0.488389,-0.12443 0.969352,-0.27173 1.441257,-0.44132 a 15.799326,15.799326 0 0 0 0.06615,-0.0238 c 0.472278,-0.17209 0.934982,-0.36623 1.387512,-0.58188 a 15.799326,15.799326 0 0 0 0.06873,-0.0326 c 0.452414,-0.21827 0.894067,-0.45815 1.323435,-0.7183 a 15.799326,15.799326 0 0 0 0.05736,-0.0341 c 0.434539,-0.26579 0.855991,-0.5529 1.263489,-0.8599 a 15.799326,15.799326 0 0 0 0.02946,-0.0217 c 0.415385,-0.31445 0.816184,-0.64918 1.199928,-1.00459 a 15.799326,15.799326 0 0 0 0.0031,-0.003 c 0.384124,-0.35597 0.751723,-0.73201 1.100706,-1.12706 a 15.799326,15.799326 0 0 1 5.19e-4,-5.2e-4 c 0.346956,-0.3928 0.675587,-0.80402 0.984435,-1.23352 a 15.799326,15.799326 0 0 0 0.0015,-0.002 c 0.305044,-0.42436 0.590656,-0.86619 0.855245,-1.32447 0.110884,-0.19206 0.215638,-0.38645 0.317809,-0.58188 a 15.799326,15.799326 0 0 0 0.05891,-0.1142 c 0.228841,-0.4465 0.434922,-0.90137 0.618567,-1.36271 a 15.799326,15.799326 0 0 0 0.02842,-0.0713 c 0.18371,-0.46813 0.344312,-0.94283 0.481623,-1.42266 a 15.799326,15.799326 0 0 0 0.02067,-0.0734 c 0.13561,-0.48268 0.247661,-0.96999 0.336413,-1.46089 a 15.799326,15.799326 0 0 0 0.01395,-0.0785 c 0.08652,-0.49273 0.149757,-0.98833 0.189134,-1.48569 a 15.799326,15.799326 0 0 0 0.0062,-0.078 c 0.03701,-0.49876 0.05017,-0.99887 0.03979,-1.49861 a 15.799326,15.799326 0 0 0 -0.0016,-0.0775 c -0.01295,-0.50461 -0.05035,-1.00865 -0.111623,-1.5105 a 15.799326,15.799326 0 0 0 -0.0057,-0.0517 c -0.06401,-0.51034 -0.153157,-1.01826 -0.267166,-1.52187 a 15.799326,15.799326 0 0 0 -0.0041,-0.0212 c -0.115107,-0.50525 -0.255194,-1.00609 -0.420645,-1.50069 a 15.799326,15.799326 0 0 0 -0.0062,-0.0191 c -0.166206,-0.49474 -0.357511,-0.98327 -0.574125,-1.46347 a 15.799326,15.799326 0 0 0 -0.001,-0.003 c -0.214977,-0.47635 -0.454748,-0.94473 -0.719336,-1.40301 -0.110908,-0.1921 -0.226502,-0.38015 -0.344681,-0.56638 a 15.799326,15.799326 0 0 0 -0.07028,-0.10852 c -0.272291,-0.42142 -0.562494,-0.82728 -0.870231,-1.21698 a 15.799326,15.799326 0 0 0 -0.04703,-0.0589 c -0.313412,-0.39301 -0.644432,-0.76939 -0.991153,-1.12809 a 15.799326,15.799326 0 0 0 -0.05374,-0.0553 c -0.350589,-0.35918 -0.716928,-0.70056 -1.098127,-1.02319 a 15.799326,15.799326 0 0 0 -0.05787,-0.0491 c -0.385742,-0.32331 -0.786281,-0.62726 -1.199928,-0.91158 a 15.799326,15.799326 0 0 0 -0.05374,-0.0372 c -0.415004,-0.28274 -0.842857,-0.54517 -1.282607,-0.78704 a 15.799326,15.799326 0 0 0 -0.06822,-0.0377 c -0.444588,-0.24168 -0.900896,-0.46219 -1.367356,-0.66042 a 15.799326,15.799326 0 0 0 -0.04134,-0.0181 c -0.473679,-0.19971 -0.957729,-0.37607 -1.45056,-0.52917 a 15.799326,15.799326 0 0 0 -0.02687,-0.009 c -0.496509,-0.15327 -1.002099,-0.283 -1.514637,-0.38706 -0.0017,-3.5e-4 -0.0034,-6.8e-4 -0.0052,-10e-4 a 15.799326,15.799326 0 0 0 -0.0026,-5.2e-4 c -0.51316,-0.10392 -1.033225,-0.18297 -1.559079,-0.23564 -0.520877,-0.0522 -1.047099,-0.0785 -1.577165,-0.0785 z" clip-path="url(#clipPath3489)" transform="matrix(2.1175761,0,0,2.117573,-1.9908829,-329.92923)"/></g></g><g id="layer3" transform="translate(0,-59.266666)"><path id="path1259" fill="#d4d4d4" stroke-width=".265" d="m 8.2037314,64.814824 c 3.725e-4,0.04508 -0.010877,0.09016 -0.033864,0.130874 -0.048775,0.08683 -1.0654329,1.892432 -1.1143811,1.979282 -0.023325,0.0414 -0.056836,0.07492 -0.096488,0.09808 -0.039662,0.02316 -0.085251,0.03596 -0.132805,0.03596 H 1.602396 c -0.047547,0 -0.093161,-0.01277 -0.1328052,-0.03596 -0.039647,-0.02313 -0.073149,-0.05666 -0.096495,-0.09808 -0.04895,-0.08685 -1.06560615,-1.892433 -1.11438319,-1.979282 -0.022988,-0.04071 -0.0342058,-0.08579 -0.0338638,-0.130874 z"/><path id="path1265" fill="#7e8087" stroke-width=".265" d="M 8.2037314,64.814824 C 8.2035583,64.769731 8.1916226,64.72484 8.1682857,64.68448 8.0549601,64.489378 5.7046291,60.437681 5.59146,60.242759 c -0.023518,-0.04053 -0.056835,-0.07333 -0.096138,-0.09596 -0.0393,-0.02262 -0.084556,-0.0351 -0.1314013,-0.0351 H 3.0646504 c -0.046844,0 -0.092099,0.01238 -0.1314012,0.0351 l 2.7329435,4.668031 z"/><path id="path3271" fill="#555761" fill-opacity=".21" stroke="none" stroke-linecap="butt" stroke-linejoin="miter" stroke-opacity="1" stroke-width=".274" d="m 1.7372519,67.691572 1.8207735,-3.2657 -2.2383821,0.02506 -2.1715649,3.558026 z" clip-path="url(#clipPath3279)" transform="matrix(0.96477049,0,0,0.96477049,0.1484674,2.2423292)"/><path id="path3293" fill="none" stroke="#555761" stroke-dasharray="none" stroke-linejoin="round" stroke-miterlimit="4" stroke-opacity="1" stroke-width=".265" d="m 8.2037314,64.814824 c 3.725e-4,0.04508 -0.010877,0.09016 -0.033864,0.130874 -0.048775,0.08683 -1.0654329,1.892432 -1.1143811,1.979282 -0.023325,0.0414 -0.056836,0.07492 -0.096488,0.09808 -0.039662,0.02316 -0.085251,0.03596 -0.132805,0.03596 H 1.602396 c -0.047547,0 -0.093161,-0.01277 -0.1328052,-0.03596 -0.039647,-0.02313 -0.073149,-0.05666 -0.096495,-0.09808 -0.04895,-0.08685 -1.06560615,-1.892433 -1.11438319,-1.979282 -0.022988,-0.04071 -0.0342058,-0.08579 -0.0338638,-0.130874 z"/><path id="path1263" fill="#abacae" stroke-width=".265" d="m 2.9332487,60.146794 c -0.039301,0.02263 -0.072636,0.05542 -0.096138,0.09596 -0.113327,0.195239 -2.46382767,4.246969 -2.57681007,4.441706 -0.0233282,0.04035 -0.0352676,0.08526 -0.0354366,0.130344 -3.7293e-4,0.04509 0.0108719,0.09018 0.0338638,0.130877 0.0487777,0.08684 1.06543247,1.892429 1.11438147,1.97928 0.023324,0.0414 0.056835,0.07492 0.096495,0.09807 l 2.7512395,-4.69932 -1.2771537,-2.182477 c -0.00352,0.0018 -0.00702,0.0038 -0.010442,0.0055 z"/><path id="path3295" fill="none" stroke="#555761" stroke-dasharray="none" stroke-linejoin="round" stroke-miterlimit="4" stroke-opacity="1" stroke-width=".265" d="M 8.2037314,64.814824 C 8.2035583,64.769731 8.1916226,64.72484 8.1682857,64.68448 8.0549601,64.489378 5.7046291,60.437681 5.59146,60.242759 c -0.023518,-0.04053 -0.056835,-0.07333 -0.096138,-0.09596 -0.0393,-0.02262 -0.084556,-0.0351 -0.1314013,-0.0351 H 3.0646504 c -0.046844,0 -0.092099,0.01238 -0.1314012,0.0351 l 2.7329435,4.668031 z"/><path id="path3340" fill="none" fill-opacity="1" stroke="url(#linearGradient3348)" stroke-dasharray="none" stroke-linejoin="round" stroke-miterlimit="4" stroke-opacity="1" stroke-width=".265" d="m 8.2037314,64.814824 c 3.725e-4,0.04508 -0.010877,0.09016 -0.033864,0.130874 -0.048775,0.08683 -1.0654329,1.892432 -1.1143811,1.979282 -0.023325,0.0414 -0.056836,0.07492 -0.096488,0.09808 -0.039662,0.02316 -0.085251,0.03596 -0.132805,0.03596 H 1.602396 c -0.047547,0 -0.093161,-0.01277 -0.1328052,-0.03596 0.65891,-1.125473 0.8078873,-1.412062 1.2928189,-2.208236 z" clip-path="url(#clipPath3352)"/><path id="path3297" fill="none" stroke="#555761" stroke-opacity="1" stroke-width=".265" d="m 2.9332487,60.146794 c -0.039301,0.02263 -0.072636,0.05542 -0.096138,0.09596 -0.113327,0.195239 -2.46382767,4.246969 -2.57681007,4.441706 -0.0233282,0.04035 -0.0352676,0.08526 -0.0354366,0.130344 -3.7293e-4,0.04509 0.0108719,0.09018 0.0338638,0.130877 0.0487777,0.08684 1.06543247,1.892429 1.11438147,1.97928 0.023324,0.0414 0.056835,0.07492 0.096495,0.09807 l 2.7512395,-4.69932 -1.2771537,-2.182477 c -0.00352,0.0018 -0.00702,0.0038 -0.010442,0.0055 z"/><path id="path3299" fill="none" stroke="url(#linearGradient3307)" stroke-dasharray="none" stroke-linejoin="round" stroke-miterlimit="4" stroke-opacity="1" stroke-width=".529" d="M 8.2037314,64.814824 C 8.2035583,64.769731 8.1916226,64.72484 8.1682857,64.68448 8.0549601,64.489378 5.7046291,60.437681 5.59146,60.242759 c -0.023518,-0.04053 -0.056835,-0.07333 -0.096138,-0.09596 -0.0393,-0.02262 -0.084556,-0.0351 -0.1314013,-0.0351 H 3.0646504 c -0.046844,0 -0.092099,0.01238 -0.1314012,0.0351 l 2.7329435,4.668031 z" clip-path="url(#clipPath3311)"/><path id="path3315" fill="none" stroke="url(#linearGradient3323)" stroke-dasharray="none" stroke-miterlimit="4" stroke-opacity="1" stroke-width=".529" d="m 2.9332487,60.146794 c -0.039301,0.02263 -0.072636,0.05542 -0.096138,0.09596 -0.113327,0.195239 -2.46382767,4.246969 -2.57681007,4.441706 -0.0233282,0.04035 -0.0352676,0.08526 -0.0354366,0.130344 -3.7293e-4,0.04509 0.0108719,0.09018 0.0338638,0.130877 0.0487777,0.08684 1.06543247,1.892429 1.11438147,1.97928 0.023324,0.0414 0.056835,0.07492 0.096495,0.09807 l 2.7512395,-4.69932 -1.2771537,-2.182477 c -0.00352,0.0018 -0.00702,0.0038 -0.010442,0.0055 z" clip-path="url(#clipPath3336)"/><path id="path3283" fill="#555761" fill-opacity=".21" stroke="none" stroke-linecap="butt" stroke-linejoin="miter" stroke-opacity="1" stroke-width=".274" d="m 4.0006906,63.006003 -1.8207735,-3.2657 2.2383821,0.02506 2.1715649,3.558026 z" clip-path="url(#clipPath3289)" transform="matrix(0.96477049,0,0,0.96477049,0.1484674,2.2423292)"/></g></svg>